<svg xmlns="http://www.w3.org/2000/svg" viewBox="0 0 1149.53 432.51"><defs><style>.cls-1{isolation:isolate;}.cls-2{fill:#0d8ac2;}.cls-3{opacity:0.45;}.cls-3,.cls-40,.cls-41,.cls-63,.cls-68{mix-blend-mode:multiply;}.cls-4{fill:#9e9e9e;opacity:0;}.cls-5{fill:#a0a0a1;opacity:0.05;}.cls-6{fill:#a3a3a3;opacity:0.1;}.cls-7{fill:#a5a5a6;opacity:0.14;}.cls-8{fill:#a8a8a8;opacity:0.19;}.cls-9{fill:#aaaaab;opacity:0.24;}.cls-10{fill:#acadad;opacity:0.29;}.cls-11{fill:#afafb0;opacity:0.33;}.cls-12{fill:#b1b2b2;opacity:0.38;}.cls-13{fill:#b3b4b5;opacity:0.43;}.cls-14{fill:#b6b7b7;opacity:0.48;}.cls-15{fill:#b8b9ba;opacity:0.52;}.cls-16{fill:#bbbcbc;opacity:0.57;}.cls-17{fill:#bdbebf;opacity:0.62;}.cls-18{fill:#bfc1c1;opacity:0.67;}.cls-19{fill:#c2c3c4;opacity:0.71;}.cls-20{fill:#c4c6c6;opacity:0.76;}.cls-21{fill:#c6c8c9;opacity:0.81;}.cls-22{fill:#c9cbcb;opacity:0.86;}.cls-23{fill:#cbcdce;opacity:0.9;}.cls-24{fill:#ced0d0;opacity:0.95;}.cls-25{fill:#d0d2d3;}.cls-26{fill:#e6e2d9;}.cls-27{fill:#dcc4b6;}.cls-28{fill:#d8c9ba;opacity:0.51;}.cls-29,.cls-30{fill:#ae787b;}.cls-29{opacity:0.53;}.cls-31,.cls-36{fill:#919191;}.cls-32{fill:#898989;}.cls-33{fill:#c5beb1;}.cls-34{fill:#494949;}.cls-35{fill:#a25660;}.cls-36{opacity:0.43;mix-blend-mode:overlay;}.cls-37{fill:#3f3f3f;}.cls-38{fill:#d7d2cb;}.cls-39{fill:#2d2828;}.cls-40,.cls-41,.cls-43{fill:#615050;}.cls-40{opacity:0.31;}.cls-41{opacity:0.48;}.cls-42{fill:#261e1f;}.cls-44{fill:#382d30;}.cls-45{fill:#736368;}.cls-46{fill:#796f6b;}.cls-47{fill:#b2a39e;}.cls-48{opacity:0.78;}.cls-49{fill:#d5ccca;}.cls-50{fill:#584b43;}.cls-51{fill:#8f7a72;}.cls-52{fill:#c2a9a5;}.cls-53{fill:#d7c9c4;}.cls-54{fill:#595251;}.cls-55{fill:#746466;}.cls-56{fill:#85807e;}.cls-57{fill:#433d3b;}.cls-58{fill:#686868;}.cls-59{fill:#1c181a;}.cls-60{fill:#8b7675;}.cls-61{fill:#322b2b;}.cls-62,.cls-63{fill:#5f5354;}.cls-62{opacity:0.65;}.cls-64{fill:#ded5cd;opacity:0.35;}.cls-65{fill:#221e23;}.cls-66{fill:#43373b;}.cls-67{fill:#ccb9b0;}.cls-68{fill:#afa69c;opacity:0.56;}.cls-69{fill:#e3dddb;}.cls-70{fill:#383838;}.cls-71{fill:#565656;}.cls-72{fill:#b4a49b;}.cls-73{fill:#d6bcb2;}.cls-74{fill:#827e7f;}.cls-75{fill:#1a1a1a;}.cls-76{fill:#606060;}</style></defs><title>Asset 1</title><g class="cls-1"><g id="Layer_2" data-name="Layer 2"><g id="Layer_1-2" data-name="Layer 1"><path class="cls-2" d="M417.87,305.31q-.66.62-1.76,1.72t-2.51,2.38q-1.41,1.28-3,2.58a34.52,34.52,0,0,1-3.26,2.36,21.94,21.94,0,0,1-3.28,1.73,7.86,7.86,0,0,1-3,.67,4.19,4.19,0,0,1-2.2-.55,4.86,4.86,0,0,1-1.52-1.43,6.34,6.34,0,0,1-.89-2,9,9,0,0,1-.29-2.29,10.48,10.48,0,0,1,.11-1.52,6.48,6.48,0,0,1,.37-1.41q-1.14,1.54-2.59,3.16a25.44,25.44,0,0,1-3.12,3,17.61,17.61,0,0,1-3.48,2.19,8.5,8.5,0,0,1-3.68.85,7.75,7.75,0,0,1-2.21-.39,7.46,7.46,0,0,1-2.4-1.27,7.26,7.26,0,0,1-1.9-2.27,7,7,0,0,1-.76-3.41,17.13,17.13,0,0,1,.46-3.59,25.71,25.71,0,0,1,1.4-4.34A26.65,26.65,0,0,1,380.7,297a19.5,19.5,0,0,1,3.43-3.93,16.72,16.72,0,0,1,4.51-2.81,14.19,14.19,0,0,1,5.64-1.07,8.91,8.91,0,0,1,2.82.41,11.79,11.79,0,0,1,2,.88,10.2,10.2,0,0,1,1.68,1.28q.62-.33,1.28-.62a11.06,11.06,0,0,1,1.15-.46,3.4,3.4,0,0,1,1-.2,3.32,3.32,0,0,1,2.27.77,2.23,2.23,0,0,1,.88,1.69,1.78,1.78,0,0,1,0,.4q-.19.7-.57,1.76l-.86,2.36q-.48,1.3-1,2.71t-.9,2.76q-.41,1.35-.66,2.54a9.86,9.86,0,0,0-.26,2,4,4,0,0,0,.36,1.81,1.29,1.29,0,0,0,1.24.72,3.19,3.19,0,0,0,1.3-.35,12.33,12.33,0,0,0,1.63-.93q.88-.58,1.81-1.33t1.82-1.52q2.05-1.83,4.37-4.17a1.83,1.83,0,0,1,1.14-.47,1.46,1.46,0,0,1,1.23.72,2.74,2.74,0,0,1,.49,1.59A2.34,2.34,0,0,1,417.87,305.31Zm-25.36-9.5a6.87,6.87,0,0,0-3.33.87,10.32,10.32,0,0,0-2.86,2.3,11.54,11.54,0,0,0-2,3.2,9.3,9.3,0,0,0-.74,3.57,13.13,13.13,0,0,0,.09,1.52,4.32,4.32,0,0,0,.42,1.45,3,3,0,0,0,.93,1.1,2.72,2.72,0,0,0,1.63.44,3.58,3.58,0,0,0,1.89-.71,15.67,15.67,0,0,0,2.24-1.83,29.14,29.14,0,0,0,2.26-2.45q1.1-1.33,2-2.61a25.28,25.28,0,0,0,1.43-2.3,3.76,3.76,0,0,0,.55-1.5,1.92,1.92,0,0,0-.47-1.26,4.38,4.38,0,0,0-1.17-1,5.85,5.85,0,0,0-1.48-.61A5.66,5.66,0,0,0,392.51,295.82Z"/><path class="cls-2" d="M449.32,292.67a13.78,13.78,0,0,1-.26,2.51,10.18,10.18,0,0,1-.85,2.58,6.31,6.31,0,0,1-1.51,2,3.32,3.32,0,0,1-2.27.8,1.33,1.33,0,0,1-.93-.22,1.14,1.14,0,0,1-.2-.77q0-.33,0-1t0-1.23a3,3,0,0,0-.18-1.12q-.18-.46-.91-.46a3.69,3.69,0,0,0-1.89.64,11.88,11.88,0,0,0-2.09,1.66,21.5,21.5,0,0,0-2,2.32,27.06,27.06,0,0,0-1.78,2.63,16,16,0,0,0-1.25,2.58,6.35,6.35,0,0,0-.46,2.12,2.46,2.46,0,0,0,.89,2,3.74,3.74,0,0,0,2.43.74,12.49,12.49,0,0,0,3.52-.54,27.93,27.93,0,0,0,3.72-1.38q1.85-.84,3.57-1.82t3.13-1.88q1.41-.9,2.36-1.53t1.25-.79a2.47,2.47,0,0,1,1.1-.29,1.35,1.35,0,0,1,.75.2,1.69,1.69,0,0,1,.49.48,1.82,1.82,0,0,1,.26.59,2.41,2.41,0,0,1,.07.53,5.05,5.05,0,0,1-.08.79,2.35,2.35,0,0,1-.55,1q-.18.22-1.19,1.11t-2.6,2.1q-1.59,1.21-3.67,2.57a37,37,0,0,1-4.44,2.5,32.89,32.89,0,0,1-4.89,1.88,17.44,17.44,0,0,1-5,.74,8.77,8.77,0,0,1-3.31-.59,7.07,7.07,0,0,1-2.43-1.6,6.73,6.73,0,0,1-1.5-2.36,8,8,0,0,1-.51-2.86,11.44,11.44,0,0,1,.78-3.79,24.36,24.36,0,0,1,2.13-4.37,34.36,34.36,0,0,1,3.19-4.39,27.42,27.42,0,0,1,4-3.84,20.83,20.83,0,0,1,4.47-2.7,11.57,11.57,0,0,1,4.71-1,6.1,6.1,0,0,1,1.52.19,3.65,3.65,0,0,1,1.24.57,2.67,2.67,0,0,1,.84,1A3.66,3.66,0,0,1,449.32,292.67Z"/><path class="cls-2" d="M463.56,294.6a32.69,32.69,0,0,1,3-1.61q1.52-.73,3-1.26a23.73,23.73,0,0,1,2.73-.84,10.17,10.17,0,0,1,2.33-.31,3.74,3.74,0,0,1,2.54.79A3.38,3.38,0,0,1,478,294q0,.4,0,.86a7.59,7.59,0,0,1-.15,1,6,6,0,0,1-1.1,2.23,33.58,33.58,0,0,1-2.15,2.67q-1.23,1.39-2.64,2.8l-2.6,2.6q-1.19,1.19-2,2.06t-.79,1.21a1.46,1.46,0,0,0,0,.4q0,.11.33.11,2-.84,4.42-2t4.86-2.43q2.42-1.24,4.58-2.43t3.67-2.06a4.83,4.83,0,0,1,.68-.31,1.87,1.87,0,0,1,.64-.13,1.49,1.49,0,0,1,1.1.44,1.58,1.58,0,0,1,.44,1.17,3.61,3.61,0,0,1-.72,1.92,9,9,0,0,1-2.4,2.25l-2.88,1.81-3.34,2.08q-1.74,1.08-3.52,2.1T471,314.17a27.19,27.19,0,0,1-3.1,1.29,8,8,0,0,1-2.51.49,5.29,5.29,0,0,1-3.79-1.22,4.11,4.11,0,0,1-1.26-3.12,1.94,1.94,0,0,1,0-.44,11.75,11.75,0,0,1,1-3.11,23,23,0,0,1,1.58-2.85q.88-1.35,1.84-2.58t1.74-2.3a20.15,20.15,0,0,0,1.3-2,3.5,3.5,0,0,0,.52-1.68,1,1,0,0,0-.07-.37.31.31,0,0,0-.33-.18,5.38,5.38,0,0,0-1.45.33,17.25,17.25,0,0,0-2.14.87,16,16,0,0,0-2.16,1.26,4.63,4.63,0,0,0-1.47,1.52q-.59,1-1.36,2.6T457.7,306q-.83,1.72-1.6,3.4l-1.32,2.89a7.12,7.12,0,0,1-1.16,1.9,8.08,8.08,0,0,1-1.56,1.43,7.85,7.85,0,0,1-1.72.91,4.62,4.62,0,0,1-1.61.33,1.94,1.94,0,0,1-1.34-.44,1.83,1.83,0,0,1-.49-1.43,5,5,0,0,1,.13-1,5,5,0,0,1,.53-1.34q.66-1.24,1.34-2.71l1.56-3.35q.88-1.88,2-4.32t2.74-5.62a3.76,3.76,0,0,1-.86-1.08A3.3,3.3,0,0,1,454,294a2.91,2.91,0,0,1,1.36-2.56,4.7,4.7,0,0,1,1.45-.6,7.33,7.33,0,0,1,1.74-.2,11.11,11.11,0,0,1,1.9.17,7.32,7.32,0,0,1,1.7.5,4,4,0,0,1,1.23.81,1.51,1.51,0,0,1,.47,1.1.84.84,0,0,1-.07.29l-.17.4-.17.4a.83.83,0,0,0-.07.29s0,.07,0,.07h0Z"/><path class="cls-2" d="M496.6,289.35a6.27,6.27,0,0,1,4.54,1.47,5.42,5.42,0,0,1,1.49,4.07,7.47,7.47,0,0,1-.81,3.22,11.15,11.15,0,0,1-2.79,3.42,29.54,29.54,0,0,1-5.3,3.54,62.49,62.49,0,0,1-8.3,3.63,2.39,2.39,0,0,0,1.13,1.67,4.67,4.67,0,0,0,2.53.61,14.52,14.52,0,0,0,3.61-.49,29.59,29.59,0,0,0,3.81-1.26q1.89-.77,3.68-1.66t3.24-1.7q1.45-.8,2.42-1.39t1.3-.73a1.47,1.47,0,0,1,.6-.25,3.77,3.77,0,0,1,.49,0,1.27,1.27,0,0,1,.73.2,2.07,2.07,0,0,1,.49.48,1.63,1.63,0,0,1,.27.59,2.38,2.38,0,0,1,.07.53,5.09,5.09,0,0,1-.07.79,2.35,2.35,0,0,1-.55,1q-.18.18-1.23,1t-2.69,1.9q-1.65,1.1-3.83,2.32a44.94,44.94,0,0,1-4.62,2.24,36.35,36.35,0,0,1-5.08,1.69,20.88,20.88,0,0,1-5.2.67,8.68,8.68,0,0,1-3.9-.85,8.79,8.79,0,0,1-2.89-2.28,10.06,10.06,0,0,1-1.81-3.3,12.29,12.29,0,0,1-.62-3.92,11.12,11.12,0,0,1,.63-3.46,18,18,0,0,1,1.8-3.79,23.31,23.31,0,0,1,2.88-3.71,21.16,21.16,0,0,1,3.83-3.2,19.88,19.88,0,0,1,4.67-2.22A17.19,17.19,0,0,1,496.6,289.35Zm-1.33,5.05a1.75,1.75,0,0,0-.33,0h-.33a6.2,6.2,0,0,0-2.6.54,8.77,8.77,0,0,0-2.22,1.44,11.48,11.48,0,0,0-1.8,2q-.79,1.13-1.41,2.25a19.89,19.89,0,0,0-1,2.14q-.42,1-.64,1.72,1.28-.66,2.66-1.5l2.58-1.61q1.21-.77,2.11-1.39t1.27-.84a7.74,7.74,0,0,0,2.27-1.92,2.88,2.88,0,0,0,.63-1.56,1.15,1.15,0,0,0-.35-.88A1.48,1.48,0,0,0,495.27,294.4Z"/><path class="cls-2" d="M544.25,305.55q-.66.62-1.76,1.72T540,309.65q-1.41,1.28-3,2.58a34.35,34.35,0,0,1-3.26,2.36,21.85,21.85,0,0,1-3.28,1.73,7.86,7.86,0,0,1-3,.67,4.19,4.19,0,0,1-2.2-.55,4.87,4.87,0,0,1-1.52-1.43,6.34,6.34,0,0,1-.89-2,9,9,0,0,1-.29-2.29,10.47,10.47,0,0,1,.11-1.52,6.48,6.48,0,0,1,.37-1.41q-1.14,1.54-2.59,3.16a25.48,25.48,0,0,1-3.12,3,17.6,17.6,0,0,1-3.48,2.19,8.49,8.49,0,0,1-3.68.85,7.78,7.78,0,0,1-2.21-.39,7.45,7.45,0,0,1-2.4-1.27,7.26,7.26,0,0,1-1.9-2.27,7,7,0,0,1-.76-3.41,17.13,17.13,0,0,1,.46-3.59,25.69,25.69,0,0,1,1.4-4.34,26.62,26.62,0,0,1,2.39-4.45,19.51,19.51,0,0,1,3.43-3.93A16.72,16.72,0,0,1,515,290.5a14.2,14.2,0,0,1,5.64-1.07,8.93,8.93,0,0,1,2.82.41,11.83,11.83,0,0,1,2,.88,10.2,10.2,0,0,1,1.68,1.29q.62-.33,1.28-.62a11,11,0,0,1,1.15-.46,3.41,3.41,0,0,1,1-.2,3.32,3.32,0,0,1,2.27.77,2.23,2.23,0,0,1,.88,1.69,1.78,1.78,0,0,1,0,.4q-.19.7-.57,1.76l-.86,2.36q-.48,1.3-1,2.71t-.9,2.76q-.41,1.35-.66,2.54a9.86,9.86,0,0,0-.26,2,4,4,0,0,0,.36,1.81,1.29,1.29,0,0,0,1.24.72,3.18,3.18,0,0,0,1.3-.35,12.37,12.37,0,0,0,1.63-.93q.88-.58,1.81-1.33t1.82-1.52q2.05-1.83,4.37-4.17a1.83,1.83,0,0,1,1.14-.47,1.46,1.46,0,0,1,1.23.72,2.74,2.74,0,0,1,.49,1.59A2.34,2.34,0,0,1,544.25,305.55Zm-25.36-9.5a6.87,6.87,0,0,0-3.33.87,10.32,10.32,0,0,0-2.86,2.3,11.53,11.53,0,0,0-2,3.2A9.3,9.3,0,0,0,510,306a13.14,13.14,0,0,0,.09,1.52,4.31,4.31,0,0,0,.42,1.45,3,3,0,0,0,.93,1.1,2.71,2.71,0,0,0,1.63.44,3.58,3.58,0,0,0,1.89-.71,15.71,15.71,0,0,0,2.24-1.83,29.14,29.14,0,0,0,2.26-2.45q1.1-1.33,2-2.61a25.35,25.35,0,0,0,1.43-2.3,3.76,3.76,0,0,0,.55-1.5,1.92,1.92,0,0,0-.47-1.26,4.38,4.38,0,0,0-1.17-1,5.86,5.86,0,0,0-1.48-.61A5.69,5.69,0,0,0,518.89,296.06Z"/><path class="cls-2" d="M549.88,295.75q-1.36,2.63-2.57,5.14T545,305.52a19.49,19.49,0,0,0-.86,2,6,6,0,0,0-.42,2,1.24,1.24,0,0,0,.24.81,1,1,0,0,0,.79.29,5.58,5.58,0,0,0,1.94-.45,21.1,21.1,0,0,0,2.53-1.2q1.36-.75,2.86-1.72t3-2q1.45-1,2.77-2.08t2.35-1.92a2,2,0,0,1,1.1-.4,1.22,1.22,0,0,1,1,.55,2.29,2.29,0,0,1,.4,1.39,4.11,4.11,0,0,1-.41,1.72,4.89,4.89,0,0,1-1.47,1.72q-2.39,2.16-4.82,4.09a49.9,49.9,0,0,1-4.84,3.41,27.29,27.29,0,0,1-4.75,2.35,12.89,12.89,0,0,1-4.54.87,6.82,6.82,0,0,1-2.45-.39,4.05,4.05,0,0,1-1.59-1.07A4,4,0,0,1,537,314a7,7,0,0,1-.25-1.92,12.66,12.66,0,0,1,.63-3.81,25.68,25.68,0,0,1,1.4-3.55l2.19-4.5Q542,298,543,295.92h-1.57a4.45,4.45,0,0,1-2.82-.66,1.94,1.94,0,0,1-.77-1.5,2.3,2.3,0,0,1,.24-.9,3.32,3.32,0,0,1,.7-1,4.25,4.25,0,0,1,1.12-.79,3.31,3.31,0,0,1,1.5-.33h4l7.76-15.33a4.69,4.69,0,0,1,1.82-2,4.54,4.54,0,0,1,2.25-.6,3.66,3.66,0,0,1,2,.59,2.13,2.13,0,0,1,.91,1.94,3.51,3.51,0,0,1-.31,1.41q-.31.71-.83,1.67-.33.62-.81,1.48l-1,1.83-1.1,2q-.57,1.06-1.12,2l-2.65,4.94,11.94,0a13.11,13.11,0,0,1,1.61.1,3.73,3.73,0,0,1,1.26.37,2.05,2.05,0,0,1,.82.75,2.44,2.44,0,0,1,.29,1.28,2.66,2.66,0,0,1-.13.81,1.73,1.73,0,0,1-.48.73,2.71,2.71,0,0,1-1,.55,6,6,0,0,1-1.56.29Z"/><path class="cls-2" d="M561.6,292.7a3.92,3.92,0,0,1,1.43-1.46,3.4,3.4,0,0,1,1.65-.44,3.48,3.48,0,0,1,2.4.9,2.93,2.93,0,0,1,1,2.29q0,.33-.09.66a2.06,2.06,0,0,1-.24.66q-.52,1-.85,1.61l-.61,1.23-.53,1.12-.62,1.32q-.44.91-1,2t-1,2.21a23,23,0,0,0-.85,2.23,6.7,6.7,0,0,0-.35,2,1.43,1.43,0,0,0,.49,1.3,2.65,2.65,0,0,0,1.41.31,5.84,5.84,0,0,0,2.14-.44,14.44,14.44,0,0,0,2.25-1.13,20.28,20.28,0,0,0,2.24-1.59q1.1-.89,2.07-1.81t1.8-1.75q.83-.84,1.38-1.5a2.16,2.16,0,0,1,1.47-.69,1.28,1.28,0,0,1,1.08.59,2.52,2.52,0,0,1,.42,1.5,4.44,4.44,0,0,1-.42,1.79,5.27,5.27,0,0,1-1.38,1.79Q575,309.31,573,311a33.83,33.83,0,0,1-4,3.07,22.18,22.18,0,0,1-4.09,2.13,11.24,11.24,0,0,1-4.14.8,6.76,6.76,0,0,1-4.67-1.53,6,6,0,0,1-1.69-4.75,11.57,11.57,0,0,1,.48-3.29,27.16,27.16,0,0,1,1.14-3.13q.66-1.52,1.4-2.93t1.25-2.69q.18-.48.64-1.46t1-2Zm4-8.23a5.28,5.28,0,0,1,.31-1.74,5,5,0,0,1,.94-1.63,5,5,0,0,1,1.56-1.21,4.82,4.82,0,0,1,2.22-.47,4.21,4.21,0,0,1,3,.83,2.78,2.78,0,0,1,.84,2.07,5,5,0,0,1-.28,1.54,5.14,5.14,0,0,1-.83,1.56,4.43,4.43,0,0,1-1.43,1.19,4.32,4.32,0,0,1-2.09.47,5.33,5.33,0,0,1-3.18-.72A2.6,2.6,0,0,1,565.65,284.46Z"/><path class="cls-2" d="M604.53,308a26.59,26.59,0,0,1-5.5,3.27,15.12,15.12,0,0,1-6.08,1.18,5.75,5.75,0,0,1-2.12-.41,17.66,17.66,0,0,1-2.67-1.43,21.3,21.3,0,0,1-4.86,4.82,8.92,8.92,0,0,1-5.08,1.64,6.69,6.69,0,0,1-2.45-.46,5.67,5.67,0,0,1-2-1.38,6.81,6.81,0,0,1-1.41-2.27,8.55,8.55,0,0,1-.53-3.15,25,25,0,0,1,.5-4.74q.5-2.54,1.2-5t1.38-4.47l1.09-3.26a5,5,0,0,1,1.85-2.21,4.19,4.19,0,0,1,2.18-.67,3,3,0,0,1,1,.17,3.27,3.27,0,0,1,.9.46,2.55,2.55,0,0,1,.66.7,1.61,1.61,0,0,1,.25.88,1.53,1.53,0,0,1-.15.7q-.55,1.76-1.31,3.82t-1.42,4.15q-.66,2.09-1.12,4.08a16.36,16.36,0,0,0-.46,3.64,4,4,0,0,0,.07.68,8.13,8.13,0,0,0,.18.81,2.36,2.36,0,0,0,.29.66.5.5,0,0,0,.4.27,3.35,3.35,0,0,0,2.13-1.06,20.67,20.67,0,0,0,2.57-2.92,19.11,19.11,0,0,0,2.29-3q1.08-1.74,2.06-3.57t1.87-3.6q.9-1.77,1.76-3.18a12.78,12.78,0,0,1,1.71-2.27,2.44,2.44,0,0,1,1.72-.86,2.33,2.33,0,0,1,2.12,1,4.22,4.22,0,0,1,.62,2.33,7.78,7.78,0,0,1-.5,2.82,16.4,16.4,0,0,1-1.34,2.65q-.85,1.37-2,3t-2.52,4a2.15,2.15,0,0,0,1.83.77,12,12,0,0,0,2.73-.32,16.37,16.37,0,0,0,2.8-.93,20.68,20.68,0,0,0,2.77-1.46,28.3,28.3,0,0,0,2.66-1.88,2,2,0,0,1,1-.33,1.28,1.28,0,0,1,1.08.59,2.51,2.51,0,0,1,.42,1.5,4.79,4.79,0,0,1-.59,2.14A5.9,5.9,0,0,1,604.53,308Z"/><path class="cls-2" d="M617.13,289.58a6.27,6.27,0,0,1,4.54,1.47,5.42,5.42,0,0,1,1.49,4.07,7.47,7.47,0,0,1-.81,3.22,11.15,11.15,0,0,1-2.79,3.42,29.52,29.52,0,0,1-5.3,3.54,62.36,62.36,0,0,1-8.3,3.63,2.39,2.39,0,0,0,1.13,1.67,4.67,4.67,0,0,0,2.53.61,14.52,14.52,0,0,0,3.61-.49,29.61,29.61,0,0,0,3.81-1.26q1.89-.77,3.68-1.66t3.24-1.7q1.45-.8,2.42-1.39t1.3-.73a1.47,1.47,0,0,1,.6-.26,3.85,3.85,0,0,1,.49,0,1.26,1.26,0,0,1,.73.2,2.06,2.06,0,0,1,.49.48,1.64,1.64,0,0,1,.27.59,2.32,2.32,0,0,1,.07.53,5.1,5.1,0,0,1-.07.79,2.34,2.34,0,0,1-.55,1q-.18.18-1.23,1t-2.69,1.9q-1.65,1.1-3.83,2.32a44.68,44.68,0,0,1-4.62,2.24,36.42,36.42,0,0,1-5.08,1.69,20.86,20.86,0,0,1-5.2.67,8.69,8.69,0,0,1-3.9-.85,8.8,8.8,0,0,1-2.89-2.28,10,10,0,0,1-1.81-3.3,12.26,12.26,0,0,1-.62-3.92,11.1,11.1,0,0,1,.63-3.46,18,18,0,0,1,1.8-3.79,23.23,23.23,0,0,1,2.88-3.71,21.09,21.09,0,0,1,3.83-3.2,19.85,19.85,0,0,1,4.67-2.23A17.22,17.22,0,0,1,617.13,289.58Zm-1.33,5.05a1.74,1.74,0,0,0-.33,0h-.33a6.21,6.21,0,0,0-2.6.54,8.76,8.76,0,0,0-2.22,1.44,11.46,11.46,0,0,0-1.8,2q-.79,1.13-1.41,2.25a19.93,19.93,0,0,0-1,2.14q-.42,1-.64,1.72,1.28-.66,2.66-1.5t2.58-1.61q1.21-.77,2.11-1.39t1.27-.84a7.74,7.74,0,0,0,2.27-1.92,2.88,2.88,0,0,0,.63-1.55,1.15,1.15,0,0,0-.35-.88A1.48,1.48,0,0,0,615.8,294.63Z"/><path class="cls-2" d="M642.75,298.38q1.14-2.52,1.88-4.08a16.9,16.9,0,0,1,1.34-2.41,3.41,3.41,0,0,1,1.21-1.15,3.8,3.8,0,0,1,3.92.61,2.93,2.93,0,0,1,1,2.29,2.47,2.47,0,0,1-.09.66,4.83,4.83,0,0,1-.24.66l-6.25,14.71a2.18,2.18,0,0,0-.2.64,3.89,3.89,0,0,0-.06.57,1.08,1.08,0,0,0,.2.71.56.56,0,0,0,.42.24,2.06,2.06,0,0,0,.82-.18,4.53,4.53,0,0,0,1-.64q.57-.46,1.39-1.24t2-2a27.58,27.58,0,0,0,2.35-2.91q1.21-1.7,2.37-3.58t2.15-3.8q1-1.92,1.73-3.57a19,19,0,0,1,1-1.77,5,5,0,0,1,.86-1,2.31,2.31,0,0,1,.86-.49,3.67,3.67,0,0,1,1-.13q2.23,0,2.23,1.94a3.64,3.64,0,0,0-.09.66,2.71,2.71,0,0,1-.2.84l-5.74,16.87a.81.81,0,0,0,.91.92,5,5,0,0,0,1.74-.67,13.73,13.73,0,0,0,2.18-1.53,14.4,14.4,0,0,0,2.05-2.16,8.58,8.58,0,0,0,1.4-2.54l1.64-4.87a42.23,42.23,0,0,1,1.77-4.45,15.37,15.37,0,0,1,2-3.29,3.5,3.5,0,0,1,2.4-1.41,2.6,2.6,0,0,1,1.92.75,2.65,2.65,0,0,1,.75,2,13.52,13.52,0,0,1-.39,3.08,26.2,26.2,0,0,1-1,3.29,23.65,23.65,0,0,1-1.49,3.18,26.54,26.54,0,0,1-1.78,2.78,1,1,0,0,0,1.06.77,15.72,15.72,0,0,0,2.69-.21,15.09,15.09,0,0,0,2.45-.64,22.11,22.11,0,0,0,2.38-1q1.19-.58,2.48-1.35A2,2,0,0,1,686,303a1.94,1.94,0,0,1,1.9,2,2.58,2.58,0,0,1-.72,1.65,9.52,9.52,0,0,1-1.89,1.64,18.65,18.65,0,0,1-2.66,1.5,31.3,31.3,0,0,1-3,1.22,25.4,25.4,0,0,1-2.93.84,11.62,11.62,0,0,1-2.47.31A8.81,8.81,0,0,1,670,311a20.54,20.54,0,0,1-5.34,4.68,11,11,0,0,1-5.62,1.6,4.69,4.69,0,0,1-3.79-1.38,6.08,6.08,0,0,1-1.15-4,22.75,22.75,0,0,1-5.15,4.07,10.22,10.22,0,0,1-4.93,1.29,8.11,8.11,0,0,1-2.69-.39,4.36,4.36,0,0,1-1.74-1.08,4,4,0,0,1-.93-1.63,7.17,7.17,0,0,1-.27-2,15.22,15.22,0,0,1,.52-3.79,35.76,35.76,0,0,1,1.23-3.86q.72-1.87,1.43-3.46Z"/><path class="cls-2" d="M697.7,289.73a6.27,6.27,0,0,1,4.54,1.47,5.42,5.42,0,0,1,1.49,4.07,7.48,7.48,0,0,1-.81,3.22,11.19,11.19,0,0,1-2.79,3.42,29.47,29.47,0,0,1-5.3,3.54,62.36,62.36,0,0,1-8.3,3.63,2.38,2.38,0,0,0,1.13,1.67,4.66,4.66,0,0,0,2.52.61,14.49,14.49,0,0,0,3.61-.49,29.58,29.58,0,0,0,3.81-1.26q1.89-.77,3.68-1.66t3.24-1.7q1.45-.8,2.42-1.39t1.3-.73a1.48,1.48,0,0,1,.6-.26,4,4,0,0,1,.5,0,1.27,1.27,0,0,1,.73.2,2.09,2.09,0,0,1,.49.48,1.64,1.64,0,0,1,.27.59,2.43,2.43,0,0,1,.07.53,5.11,5.11,0,0,1-.08.79,2.34,2.34,0,0,1-.55,1q-.18.18-1.23,1t-2.7,1.9q-1.65,1.09-3.83,2.32a44.88,44.88,0,0,1-4.62,2.24,36.42,36.42,0,0,1-5.08,1.69,20.85,20.85,0,0,1-5.2.67,8.68,8.68,0,0,1-3.9-.85,8.79,8.79,0,0,1-2.89-2.28,10.09,10.09,0,0,1-1.81-3.3,12.32,12.32,0,0,1-.61-3.92,11.1,11.1,0,0,1,.63-3.46,18,18,0,0,1,1.8-3.79,23.37,23.37,0,0,1,2.88-3.71,21.13,21.13,0,0,1,3.83-3.2,19.85,19.85,0,0,1,4.67-2.23A17.22,17.22,0,0,1,697.7,289.73Zm-1.33,5.05a1.74,1.74,0,0,0-.33,0h-.33a6.2,6.2,0,0,0-2.6.54,8.74,8.74,0,0,0-2.22,1.44,11.46,11.46,0,0,0-1.8,2q-.79,1.13-1.41,2.25a20,20,0,0,0-1,2.14q-.42,1-.64,1.72,1.28-.66,2.66-1.5t2.58-1.61q1.21-.77,2.11-1.39t1.26-.84a7.71,7.71,0,0,0,2.27-1.92,2.88,2.88,0,0,0,.63-1.55,1.15,1.15,0,0,0-.35-.88A1.49,1.49,0,0,0,696.37,294.79Z"/><path class="cls-2" d="M727,310.66a20.83,20.83,0,0,1-6.62,5.46,16.75,16.75,0,0,1-7.57,1.73,9.82,9.82,0,0,1-3.77-.65,6.57,6.57,0,0,1-2.49-1.74,6.68,6.68,0,0,1-1.37-2.57,11.2,11.2,0,0,1-.41-3.11,16.54,16.54,0,0,1,.48-3.86,25.92,25.92,0,0,1,1.25-3.86q.51-1.21.85-2t.55-1.37l.39-1,.35-.88q.18-.46.44-1.06t.7-1.55l10.74-23.75a3.39,3.39,0,0,1,.64-.91,5.15,5.15,0,0,1,1-.79,5,5,0,0,1,1.19-.55,4.32,4.32,0,0,1,1.3-.2,3.36,3.36,0,0,1,2.36.66,2.16,2.16,0,0,1,.67,1.61,4.11,4.11,0,0,1-.37,1.59,13.06,13.06,0,0,1-.81,1.59q-2.72,5.2-5.15,10.56t-5.15,10.59q1.17-.91,2.49-1.77a23.39,23.39,0,0,1,2.75-1.53,18.08,18.08,0,0,1,3-1.09,11.9,11.9,0,0,1,3.15-.42,6.55,6.55,0,0,1,2.31.44,7,7,0,0,1,2.14,1.29,6.52,6.52,0,0,1,1.57,2.07,6.33,6.33,0,0,1,.6,2.84,9.58,9.58,0,0,1-.22,1.46q-.22,1.1-.65,2.47t-1,2.82a15.08,15.08,0,0,1-1.34,2.54,1,1,0,0,0,.66.5,4.16,4.16,0,0,0,.92.09,13.12,13.12,0,0,0,3.35-.43,22.16,22.16,0,0,0,3.15-1.07,30.09,30.09,0,0,0,2.73-1.33q1.25-.69,2.09-1.2a1.29,1.29,0,0,1,1-.47,1.37,1.37,0,0,1,1.08.55,2.15,2.15,0,0,1,.46,1.43,4.26,4.26,0,0,1-.35,1.67,6.56,6.56,0,0,1-1.27,1.81q-1.65,1-3.32,1.86a28.74,28.74,0,0,1-3.39,1.51,25.45,25.45,0,0,1-3.5,1,17,17,0,0,1-3.61.38,6.81,6.81,0,0,1-2.16-.33A4.56,4.56,0,0,1,727,310.66Zm-3-14.76a9.53,9.53,0,0,0-4.18,1,13.84,13.84,0,0,0-3.76,2.65,14.51,14.51,0,0,0-2.74,3.71,9.11,9.11,0,0,0-1.07,4.19,6.64,6.64,0,0,0,.11,1.19,2.86,2.86,0,0,0,.46,1.12,2.55,2.55,0,0,0,1,.84,4,4,0,0,0,1.76.33,9,9,0,0,0,4.12-1,13,13,0,0,0,3.58-2.65,13.54,13.54,0,0,0,2.54-3.71,9.89,9.89,0,0,0,1-4.15,8.13,8.13,0,0,0-.09-1.17,3.2,3.2,0,0,0-.38-1.14,2.45,2.45,0,0,0-.84-.86A2.7,2.7,0,0,0,723.91,295.9Z"/><path class="cls-2" d="M793.11,306q-.66.62-1.76,1.72t-2.51,2.38q-1.41,1.28-3,2.58a34.38,34.38,0,0,1-3.26,2.36,21.94,21.94,0,0,1-3.28,1.73,7.86,7.86,0,0,1-3,.67,4.18,4.18,0,0,1-2.2-.55,4.84,4.84,0,0,1-1.52-1.43,6.31,6.31,0,0,1-.89-2,8.94,8.94,0,0,1-.29-2.29,10.48,10.48,0,0,1,.11-1.52,6.45,6.45,0,0,1,.37-1.41q-1.14,1.54-2.59,3.16a25.59,25.59,0,0,1-3.12,3,17.62,17.62,0,0,1-3.48,2.19,8.5,8.5,0,0,1-3.68.85,7.75,7.75,0,0,1-2.21-.39,7.47,7.47,0,0,1-2.4-1.27,7.29,7.29,0,0,1-1.9-2.27,7,7,0,0,1-.76-3.41,17.09,17.09,0,0,1,.46-3.59,25.71,25.71,0,0,1,1.4-4.34,26.59,26.59,0,0,1,2.39-4.45,19.55,19.55,0,0,1,3.43-3.93,16.72,16.72,0,0,1,4.51-2.81,14.21,14.21,0,0,1,5.64-1.07,9,9,0,0,1,2.82.41,11.92,11.92,0,0,1,2,.88,10.26,10.26,0,0,1,1.68,1.29q.62-.33,1.28-.62a10.87,10.87,0,0,1,1.15-.46,3.39,3.39,0,0,1,1-.2,3.32,3.32,0,0,1,2.27.77,2.22,2.22,0,0,1,.88,1.69,1.73,1.73,0,0,1,0,.4q-.18.7-.57,1.76l-.87,2.36q-.48,1.3-1,2.71t-.9,2.76q-.41,1.35-.67,2.54a9.86,9.86,0,0,0-.26,2,4,4,0,0,0,.36,1.81,1.29,1.29,0,0,0,1.24.72,3.19,3.19,0,0,0,1.3-.35,12.32,12.32,0,0,0,1.63-.93q.88-.58,1.82-1.33t1.82-1.52q2.05-1.83,4.37-4.17a1.83,1.83,0,0,1,1.14-.47,1.46,1.46,0,0,1,1.23.72,2.74,2.74,0,0,1,.49,1.59A2.34,2.34,0,0,1,793.11,306Zm-25.36-9.5a6.87,6.87,0,0,0-3.33.87,10.34,10.34,0,0,0-2.86,2.3,11.51,11.51,0,0,0-2,3.2,9.3,9.3,0,0,0-.74,3.57,13.23,13.23,0,0,0,.09,1.52,4.34,4.34,0,0,0,.42,1.45,3,3,0,0,0,.93,1.1,2.71,2.71,0,0,0,1.63.44,3.58,3.58,0,0,0,1.89-.71,15.61,15.61,0,0,0,2.24-1.83,29.14,29.14,0,0,0,2.26-2.45q1.1-1.33,2-2.62a25.22,25.22,0,0,0,1.43-2.3,3.77,3.77,0,0,0,.55-1.5,1.92,1.92,0,0,0-.47-1.26,4.37,4.37,0,0,0-1.17-1,5.83,5.83,0,0,0-1.48-.61A5.65,5.65,0,0,0,767.75,296.53Z"/><path class="cls-2" d="M793.68,294.35a5.7,5.7,0,0,1,1.83-2.34,3.76,3.76,0,0,1,2.16-.76,2.27,2.27,0,0,1,1.57.64,2.44,2.44,0,0,1,.69,1.89,5.25,5.25,0,0,1-.11,1,5.19,5.19,0,0,1-.41,1.17,11.38,11.38,0,0,1,2.31-2.1,21.32,21.32,0,0,1,3.32-1.93,24.23,24.23,0,0,1,3.74-1.4,13.28,13.28,0,0,1,3.65-.54,5.41,5.41,0,0,1,3.24.94A3.64,3.64,0,0,1,817,294.1a10.11,10.11,0,0,1-.41,2.75,20.76,20.76,0,0,1-1,2.85q-.64,1.43-1.43,2.8t-1.56,2.58l-1.41,2.21q-.64,1-1,1.66a2.09,2.09,0,0,0-.48,1.35.77.77,0,0,0,.18.51.72.72,0,0,0,.58.22A3.67,3.67,0,0,0,811,311a2.14,2.14,0,0,0,.81-.38,33.48,33.48,0,0,0,4.05-1.82q2.07-1.09,4-2.32t3.5-2.45q1.6-1.22,2.66-2.21a1.93,1.93,0,0,1,.59-.36,1.56,1.56,0,0,1,.55-.11,1.14,1.14,0,0,1,1,.48,2,2,0,0,1,.34,1.21,5.62,5.62,0,0,1-.72,2.53,8,8,0,0,1-2.26,2.6l-3.83,2.74q-1.74,1.24-3.56,2.32a38.21,38.21,0,0,1-3.89,2,36.42,36.42,0,0,1-4.85,1.73,15.67,15.67,0,0,1-1.74.44,8,8,0,0,1-1.45.14,3.48,3.48,0,0,1-2.84-1.09,4.59,4.59,0,0,1-.89-3c0-.17,0-.34,0-.49s0-.33.06-.53a8.34,8.34,0,0,1,.61-2.49,27.61,27.61,0,0,1,1.29-2.78q.75-1.43,1.6-2.84t1.56-2.67q.72-1.26,1.19-2.25a3.94,3.94,0,0,0,.48-1.61,1.44,1.44,0,0,0-.31-.94,1.13,1.13,0,0,0-.93-.39,7.94,7.94,0,0,0-4.45,1.38,20.55,20.55,0,0,0-3.94,3.42,39.39,39.39,0,0,0-3.38,4.3q-1.54,2.27-2.72,4.06a22.59,22.59,0,0,0-1.34,2.58q-.61,1.37-1.27,2.56a8.19,8.19,0,0,1-1.49,2,2.88,2.88,0,0,1-2.07.78,2.58,2.58,0,0,1-2-.81,2.83,2.83,0,0,1-.73-2,6.76,6.76,0,0,1,.52-2q.52-1.39,1.32-3.22t1.82-3.93q1-2.1,2-4.17t1.93-3.9Q793.09,295.63,793.68,294.35Z"/><path class="cls-2" d="M843.42,309.24a.41.41,0,0,0,0,.18.41.41,0,0,1,0,.18,3.28,3.28,0,0,0,.33,1.37,1.1,1.1,0,0,0,1.06.72,1,1,0,0,0,.44-.07,17.07,17.07,0,0,0,4.23-2,42.08,42.08,0,0,0,4.13-3,46.12,46.12,0,0,0,3.65-3.29q1.67-1.68,2.77-3a1.47,1.47,0,0,1,1.14-.62,1.24,1.24,0,0,1,1,.51,2.13,2.13,0,0,1,.42,1.39,4.52,4.52,0,0,1-.39,1.65,8.43,8.43,0,0,1-1.27,2q-2.17,2.38-4.44,4.57a45.23,45.23,0,0,1-4.59,3.89,24.94,24.94,0,0,1-4.6,2.72,10.93,10.93,0,0,1-4.49,1,5.73,5.73,0,0,1-4.21-1.53A6.14,6.14,0,0,1,837,311.5v-.38a2,2,0,0,1,0-.38,11.58,11.58,0,0,1-2.17,2.8,14.65,14.65,0,0,1-2.9,2.15,15.22,15.22,0,0,1-3.26,1.39,11.54,11.54,0,0,1-3.26.49,8.09,8.09,0,0,1-2.49-.37,4.93,4.93,0,0,1-2-1.18A5.43,5.43,0,0,1,819.7,314a8.68,8.68,0,0,1-.45-3,17.8,17.8,0,0,1,1-5.84,21.52,21.52,0,0,1,2.54-5.08,23.22,23.22,0,0,1,3.61-4.17,26.33,26.33,0,0,1,4.22-3.14,21.12,21.12,0,0,1,4.34-2,13,13,0,0,1,4-.69,8.48,8.48,0,0,1,3.59.7,5.19,5.19,0,0,1,1.35,1c.1-.22.2-.43.29-.62q.37-.88.66-1.52t.4-.93q.11-.33.63-1.54l1.2-2.84q.68-1.63,1.47-3.49t1.45-3.51l1.14-2.84q.48-1.19.59-1.52a9.44,9.44,0,0,1,.7-1.77,6.44,6.44,0,0,1,1-1.5,4.7,4.7,0,0,1,1.41-1,4.2,4.2,0,0,1,1.83-.38,4.11,4.11,0,0,1,2.31.61,2.59,2.59,0,0,1,.91,2.33,5.88,5.88,0,0,1-.19,1.43q-.18.73-.42,1.43t-.52,1.37c-.18.45-.35.87-.5,1.26q-1.84,3.66-3.86,8t-4,8.65q-2,4.35-3.79,8.49T843.42,309.24Zm-1.07-14.32a15,15,0,0,0-4.62.94,16.37,16.37,0,0,0-5.1,2.83,16.79,16.79,0,0,0-3.91,4.63,14.1,14.1,0,0,0-1.83,6.3q0,1.46,1.24,1.47a6.93,6.93,0,0,0,2.93-.64,11.45,11.45,0,0,0,2.66-1.72,17.49,17.49,0,0,0,2.37-2.47,31.43,31.43,0,0,0,2-2.89q.94-1.5,1.69-3t1.31-2.76l.52-1.13Q841.94,295.8,842.35,294.92Z"/><path class="cls-2" d="M911,306.25q-.66.62-1.76,1.72t-2.51,2.38q-1.41,1.28-3,2.58a34.38,34.38,0,0,1-3.26,2.36,21.94,21.94,0,0,1-3.28,1.73,7.86,7.86,0,0,1-3,.67,4.18,4.18,0,0,1-2.2-.55,4.84,4.84,0,0,1-1.52-1.43,6.31,6.31,0,0,1-.89-2,8.94,8.94,0,0,1-.29-2.29,10.48,10.48,0,0,1,.11-1.52,6.45,6.45,0,0,1,.37-1.41q-1.14,1.54-2.59,3.16a25.59,25.59,0,0,1-3.12,3,17.62,17.62,0,0,1-3.48,2.19,8.5,8.5,0,0,1-3.68.85,7.75,7.75,0,0,1-2.21-.39,7.47,7.47,0,0,1-2.4-1.27,7.29,7.29,0,0,1-1.9-2.27,7,7,0,0,1-.76-3.41,17.09,17.09,0,0,1,.46-3.59,25.71,25.71,0,0,1,1.4-4.34,26.59,26.59,0,0,1,2.39-4.45,19.55,19.55,0,0,1,3.43-3.93,16.72,16.72,0,0,1,4.51-2.81,14.21,14.21,0,0,1,5.64-1.07,9,9,0,0,1,2.82.41,11.92,11.92,0,0,1,2,.88,10.26,10.26,0,0,1,1.68,1.29q.62-.33,1.28-.62a10.87,10.87,0,0,1,1.15-.46,3.39,3.39,0,0,1,1-.2,3.32,3.32,0,0,1,2.27.77,2.22,2.22,0,0,1,.88,1.69,1.73,1.73,0,0,1,0,.4q-.18.7-.57,1.76l-.87,2.36q-.48,1.3-1,2.71t-.9,2.76q-.41,1.35-.67,2.54a9.86,9.86,0,0,0-.26,2,4,4,0,0,0,.36,1.81,1.29,1.29,0,0,0,1.24.72,3.19,3.19,0,0,0,1.3-.35,12.32,12.32,0,0,0,1.63-.93q.88-.58,1.82-1.33t1.82-1.52q2.05-1.83,4.37-4.17a1.83,1.83,0,0,1,1.14-.47,1.46,1.46,0,0,1,1.23.72,2.74,2.74,0,0,1,.49,1.59A2.34,2.34,0,0,1,911,306.25Zm-25.36-9.5a6.87,6.87,0,0,0-3.33.87,10.34,10.34,0,0,0-2.86,2.3,11.51,11.51,0,0,0-2,3.2,9.3,9.3,0,0,0-.74,3.57,13.23,13.23,0,0,0,.09,1.52,4.34,4.34,0,0,0,.42,1.45,3,3,0,0,0,.93,1.1,2.71,2.71,0,0,0,1.63.44,3.58,3.58,0,0,0,1.89-.71,15.61,15.61,0,0,0,2.24-1.83,29.14,29.14,0,0,0,2.26-2.45q1.1-1.33,2-2.62a25.22,25.22,0,0,0,1.43-2.3,3.77,3.77,0,0,0,.55-1.5,1.92,1.92,0,0,0-.47-1.26,4.37,4.37,0,0,0-1.17-1A5.83,5.83,0,0,0,887,297,5.65,5.65,0,0,0,885.6,296.76Z"/><path class="cls-2" d="M944.37,299.65a8.87,8.87,0,0,1,1-.47,2.19,2.19,0,0,1,.84-.18,1.36,1.36,0,0,1,1.21.61,2.6,2.6,0,0,1,.4,1.48,4.31,4.31,0,0,1-.5,1.94,4.26,4.26,0,0,1-1.49,1.65q-3.92,2.92-7,5.33T933,314.15a27.63,27.63,0,0,1-5.33,2.68,16.06,16.06,0,0,1-5.57.94,7.66,7.66,0,0,1-4.3-1,3.23,3.23,0,0,1-1.52-2.82c0-.1,0-.19,0-.27a1.64,1.64,0,0,1,0-.31,6.07,6.07,0,0,1,1.14-2.52,29.67,29.67,0,0,1,2.39-3q1.39-1.54,3-3.11t2.92-3a29.8,29.8,0,0,0,2.22-2.58,3.54,3.54,0,0,0,.88-1.9.81.81,0,0,0-.37-.7,2.17,2.17,0,0,0-1.21-.26,7.93,7.93,0,0,0-3,.64,15.53,15.53,0,0,0-3.08,1.72,26.14,26.14,0,0,0-3,2.47,37.57,37.57,0,0,0-2.71,2.89q-1.27,1.5-2.31,3t-1.78,2.8l-.62,1.13q-.4.73-.88,1.65t-1,1.88q-.53,1-1,1.83l-.79,1.54q-.35.68-.5.93t-.61,1.24q-.42.91-1,2.14l-1.16,2.58-1.14,2.56-.94,2.12q-.4.91-.52,1.24a12.23,12.23,0,0,1-.86,1.79,7.33,7.33,0,0,1-1.14,1.48,5.09,5.09,0,0,1-1.47,1,4.31,4.31,0,0,1-1.85.38,4.09,4.09,0,0,1-2.18-.54,2.2,2.2,0,0,1-.86-2,5.45,5.45,0,0,1,.22-1.5,12.09,12.09,0,0,1,.55-1.52q.33-.75.68-1.46T895,327q2-3.66,4-7.33t4-7.28q1.89-3.6,3.51-7.08a64.38,64.38,0,0,0,2.69-6.66q.29-.66.81-1.87a23.87,23.87,0,0,1,1.18-2.38,10.08,10.08,0,0,1,1.49-2,2.45,2.45,0,0,1,1.78-.86,3.23,3.23,0,0,1,2.12.57,2.08,2.08,0,0,1,.66,1.67,5.22,5.22,0,0,1-.08.7c0,.32-.11.65-.18,1s-.15.69-.24,1a4,4,0,0,1-.24.7q1.36-1.24,2.93-2.47a30.06,30.06,0,0,1,3.26-2.21,20,20,0,0,1,3.44-1.6,10.48,10.48,0,0,1,3.52-.62,10,10,0,0,1,2.4.3,7.54,7.54,0,0,1,2.12.86,4.88,4.88,0,0,1,1.52,1.43,3.48,3.48,0,0,1,.58,2,6.89,6.89,0,0,1-.9,3.2,22.56,22.56,0,0,1-2.26,3.42,44,44,0,0,1-2.94,3.35q-1.58,1.63-3,3L924.89,310q-.94.93-1,1.26a.88.88,0,0,0,.33.71,1.72,1.72,0,0,0,1.1.28,4.74,4.74,0,0,0,1.83-.58,31.88,31.88,0,0,0,3.39-2q2.18-1.44,5.54-3.87T944.37,299.65Z"/><path class="cls-2" d="M978.72,299.72a8.69,8.69,0,0,1,1-.47,2.19,2.19,0,0,1,.84-.18,1.35,1.35,0,0,1,1.21.61,2.6,2.6,0,0,1,.4,1.48,4.31,4.31,0,0,1-.5,1.94,4.26,4.26,0,0,1-1.49,1.65q-3.92,2.92-7,5.33t-5.81,4.15A27.63,27.63,0,0,1,962,316.9a16.07,16.07,0,0,1-5.57.94,7.66,7.66,0,0,1-4.3-1A3.23,3.23,0,0,1,950.6,314c0-.1,0-.19,0-.27a1.64,1.64,0,0,1,0-.31,6.07,6.07,0,0,1,1.14-2.52,29.56,29.56,0,0,1,2.39-3q1.39-1.54,3-3.11t2.92-3a30,30,0,0,0,2.22-2.58,3.54,3.54,0,0,0,.88-1.9.81.81,0,0,0-.37-.7,2.17,2.17,0,0,0-1.21-.26,7.92,7.92,0,0,0-3,.63,15.53,15.53,0,0,0-3.08,1.72,26.14,26.14,0,0,0-3,2.47,37.57,37.57,0,0,0-2.71,2.89q-1.27,1.5-2.31,3t-1.78,2.8l-.62,1.13q-.4.73-.88,1.65t-1,1.88q-.53,1-1,1.83l-.79,1.54q-.35.68-.5.93t-.61,1.24q-.42.91-1,2.14l-1.16,2.58L937,327.4l-.94,2.12q-.4.91-.52,1.24a12.23,12.23,0,0,1-.86,1.79,7.33,7.33,0,0,1-1.14,1.48,5.1,5.1,0,0,1-1.47,1,4.32,4.32,0,0,1-1.85.38,4.1,4.1,0,0,1-2.18-.54,2.2,2.2,0,0,1-.86-2,5.45,5.45,0,0,1,.22-1.5,12.06,12.06,0,0,1,.55-1.52q.33-.75.68-1.46t.64-1.37q2-3.66,4-7.33t4-7.28q1.89-3.6,3.51-7.08a64.43,64.43,0,0,0,2.69-6.66q.29-.66.81-1.87a23.92,23.92,0,0,1,1.18-2.38,10.09,10.09,0,0,1,1.49-2,2.44,2.44,0,0,1,1.78-.86,3.23,3.23,0,0,1,2.12.57,2.08,2.08,0,0,1,.66,1.67,5.21,5.21,0,0,1-.08.7c0,.32-.11.65-.18,1s-.15.69-.24,1a4,4,0,0,1-.24.7q1.36-1.24,2.93-2.47A30,30,0,0,1,957,292.5a20,20,0,0,1,3.44-1.6,10.48,10.48,0,0,1,3.52-.62,10,10,0,0,1,2.4.3,7.55,7.55,0,0,1,2.12.87,4.87,4.87,0,0,1,1.52,1.43,3.47,3.47,0,0,1,.58,2,6.9,6.9,0,0,1-.9,3.2,22.61,22.61,0,0,1-2.26,3.42,44.07,44.07,0,0,1-2.94,3.35q-1.58,1.63-3,3t-2.31,2.27q-.94.93-1,1.26a.88.88,0,0,0,.33.71,1.72,1.72,0,0,0,1.1.28,4.75,4.75,0,0,0,1.83-.58,31.9,31.9,0,0,0,3.39-2q2.18-1.44,5.54-3.87T978.72,299.72Z"/><path class="cls-2" d="M1001,296.36a21.54,21.54,0,0,1,4,2.68,19,19,0,0,1,3,3.17,13.92,13.92,0,0,1,1.86,3.39,9.63,9.63,0,0,1,.63,3.37,6.3,6.3,0,0,1-1.2,3.75,10.22,10.22,0,0,1-3.12,2.81,15.77,15.77,0,0,1-4.4,1.75,21,21,0,0,1-5,.59,16.12,16.12,0,0,1-3.7-.43,11.56,11.56,0,0,1-3.27-1.31,9,9,0,0,1-2.54-2.26,8.33,8.33,0,0,1-1.5-3.28,2,2,0,0,1-.07-.48,2.36,2.36,0,0,1,.7-1.7,2.11,2.11,0,0,1,1.54-.71,3.2,3.2,0,0,1,.9.15,1.21,1.21,0,0,1,.75.66,5.22,5.22,0,0,0,1.33,1.58,9.16,9.16,0,0,0,1.92,1.19,11.32,11.32,0,0,0,2.25.77,10.36,10.36,0,0,0,2.33.28,11.27,11.27,0,0,0,2.25-.21,6.29,6.29,0,0,0,1.91-.69,3.75,3.75,0,0,0,1.3-1.21,3.22,3.22,0,0,0,.48-1.79,7.19,7.19,0,0,0-.83-3.44,12.39,12.39,0,0,0-2.17-2.92,20.9,20.9,0,0,0-3-2.5q-1.7-1.16-3.38-2.22a2.46,2.46,0,0,1-.55-.64,1.89,1.89,0,0,1-.36-1.08,1,1,0,0,1,.22-.7,18.82,18.82,0,0,1,1.36-1.57,14.69,14.69,0,0,1,1.65-1.48,8.22,8.22,0,0,1,1.91-1.1,5.54,5.54,0,0,1,2.12-.42,5,5,0,0,1,1.5.22,4,4,0,0,1,1.17.57,3,3,0,0,1,.75.77,1.47,1.47,0,0,1,.27.79,2.07,2.07,0,0,1-.26,1,4.26,4.26,0,0,1-.68.91,11.51,11.51,0,0,1-1,.88Z"/><path class="cls-2" d="M1022.24,296.65q-1.36,2.63-2.57,5.14t-2.28,4.63a19.6,19.6,0,0,0-.86,2,6.06,6.06,0,0,0-.42,2,1.24,1.24,0,0,0,.24.81,1,1,0,0,0,.79.29,5.59,5.59,0,0,0,1.94-.45,21.13,21.13,0,0,0,2.53-1.2q1.36-.75,2.86-1.72t3-2q1.45-1,2.77-2.08t2.35-1.92a2,2,0,0,1,1.1-.4,1.22,1.22,0,0,1,1,.55,2.29,2.29,0,0,1,.4,1.39,4.13,4.13,0,0,1-.41,1.72,4.88,4.88,0,0,1-1.47,1.72q-2.38,2.16-4.82,4.09a50,50,0,0,1-4.84,3.41,27.27,27.27,0,0,1-4.75,2.35,12.91,12.91,0,0,1-4.54.87,6.81,6.81,0,0,1-2.45-.39,4,4,0,0,1-1.59-1.07,3.94,3.94,0,0,1-.86-1.58,7,7,0,0,1-.25-1.92,12.64,12.64,0,0,1,.63-3.81,25.63,25.63,0,0,1,1.4-3.55l2.19-4.5q1.08-2.23,2.11-4.28h-1.57a4.45,4.45,0,0,1-2.82-.66,1.94,1.94,0,0,1-.77-1.5,2.29,2.29,0,0,1,.24-.9,3.32,3.32,0,0,1,.7-1,4.25,4.25,0,0,1,1.12-.79,3.32,3.32,0,0,1,1.5-.33h4l7.76-15.33a4.69,4.69,0,0,1,1.82-2,4.54,4.54,0,0,1,2.25-.6,3.67,3.67,0,0,1,2,.59,2.13,2.13,0,0,1,.91,1.94,3.53,3.53,0,0,1-.31,1.41q-.31.71-.83,1.67c-.22.42-.49.91-.81,1.48l-1,1.83-1.1,2q-.57,1.06-1.12,2l-2.65,4.94,11.94,0a13.11,13.11,0,0,1,1.61.09,3.73,3.73,0,0,1,1.26.37,2.06,2.06,0,0,1,.82.75,2.43,2.43,0,0,1,.29,1.28,2.65,2.65,0,0,1-.13.81,1.73,1.73,0,0,1-.48.73,2.71,2.71,0,0,1-1,.55,6,6,0,0,1-1.56.29Z"/><path class="cls-2" d="M1068.14,308.35a31.07,31.07,0,0,1-3.76,3.56A37.53,37.53,0,0,1,1060,315a27.83,27.83,0,0,1-4.47,2.17,11.42,11.42,0,0,1-4,.82,4.11,4.11,0,0,1-2.86-1,4.36,4.36,0,0,1-1.09-3.37,15.66,15.66,0,0,1,.59-3.92,20.41,20.41,0,0,1-2.39,2.89,19.63,19.63,0,0,1-3.26,2.67,17.23,17.23,0,0,1-4.11,2,15.66,15.66,0,0,1-4.94.74,10.39,10.39,0,0,1-2.33-.26,5.21,5.21,0,0,1-2-.88,4.49,4.49,0,0,1-1.35-1.67,5.93,5.93,0,0,1-.51-2.62s0-.4.15-1.12a20.71,20.71,0,0,1,.94-3.4q.79-2.32,2.45-6t4.67-9a5.15,5.15,0,0,1,1.78-2,4.17,4.17,0,0,1,2.18-.6,4.67,4.67,0,0,1,1.06.13,3.74,3.74,0,0,1,1,.4,2.37,2.37,0,0,1,.77.7,1.66,1.66,0,0,1,.29,1,2.18,2.18,0,0,1-.11.7,7.61,7.61,0,0,1-.79,1.63q-.61,1-1.42,2.3t-1.71,2.8q-.9,1.5-1.67,3.11a27.89,27.89,0,0,0-1.33,3.27,12.11,12.11,0,0,0-.63,3.24,2.13,2.13,0,0,0,.36,1.21,1.35,1.35,0,0,0,1.21.55,8.59,8.59,0,0,0,4.54-1.31,19,19,0,0,0,4-3.27,31.68,31.68,0,0,0,3.32-4.2q1.49-2.25,2.48-4.12a19.25,19.25,0,0,0,1.23-2.67,24.14,24.14,0,0,1,1.16-2.63,8,8,0,0,1,1.43-2,2.74,2.74,0,0,1,2-.8,2.68,2.68,0,0,1,2.08.85,2.88,2.88,0,0,1,.77,2,5,5,0,0,1-.5,1.81q-.5,1.15-1.25,2.63t-1.64,3.17q-.88,1.68-1.64,3.42a30.56,30.56,0,0,0-1.25,3.4,11,11,0,0,0-.5,3.09q0,1.32,1.61,1.32a8.07,8.07,0,0,0,2.82-.65,20.19,20.19,0,0,0,3.54-1.84,32,32,0,0,0,3.71-2.79,23.72,23.72,0,0,0,3.28-3.47Z"/><path class="cls-2" d="M1083.92,309.7a.41.41,0,0,0,0,.18.41.41,0,0,1,0,.18,3.28,3.28,0,0,0,.33,1.37,1.1,1.1,0,0,0,1.06.72,1,1,0,0,0,.44-.07,17,17,0,0,0,4.23-2,42.16,42.16,0,0,0,4.13-3,46.12,46.12,0,0,0,3.65-3.29q1.67-1.68,2.77-3a1.47,1.47,0,0,1,1.14-.62,1.24,1.24,0,0,1,1,.51,2.13,2.13,0,0,1,.42,1.39,4.52,4.52,0,0,1-.39,1.65,8.42,8.42,0,0,1-1.27,2q-2.17,2.38-4.44,4.57a45.23,45.23,0,0,1-4.59,3.89,25,25,0,0,1-4.6,2.72,10.94,10.94,0,0,1-4.49,1,5.73,5.73,0,0,1-4.21-1.53,6.14,6.14,0,0,1-1.53-4.56v-.38a2,2,0,0,1,0-.38,11.58,11.58,0,0,1-2.17,2.8,14.67,14.67,0,0,1-2.9,2.15,15.24,15.24,0,0,1-3.26,1.39,11.56,11.56,0,0,1-3.26.49,8.09,8.09,0,0,1-2.49-.37,4.92,4.92,0,0,1-2-1.18,5.43,5.43,0,0,1-1.28-2.05,8.69,8.69,0,0,1-.45-3,17.8,17.8,0,0,1,1-5.84,21.52,21.52,0,0,1,2.54-5.09,23.22,23.22,0,0,1,3.61-4.17,26.3,26.3,0,0,1,4.22-3.14,21.1,21.1,0,0,1,4.34-2,13,13,0,0,1,4-.69,8.48,8.48,0,0,1,3.59.7,5.18,5.18,0,0,1,1.35,1c.1-.22.2-.43.29-.62q.37-.88.66-1.52t.4-.93q.11-.33.63-1.54l1.2-2.84q.68-1.63,1.47-3.49t1.45-3.51l1.14-2.84q.48-1.19.59-1.52a9.45,9.45,0,0,1,.7-1.77,6.44,6.44,0,0,1,1-1.5,4.7,4.7,0,0,1,1.41-1,4.2,4.2,0,0,1,1.83-.38,4.1,4.1,0,0,1,2.31.61,2.59,2.59,0,0,1,.91,2.33,5.89,5.89,0,0,1-.19,1.43q-.18.73-.42,1.43t-.52,1.37c-.18.45-.35.87-.5,1.26q-1.84,3.66-3.86,8t-4,8.65q-2,4.35-3.79,8.49T1083.92,309.7Zm-1.07-14.32a15,15,0,0,0-4.62.94,16.37,16.37,0,0,0-5.1,2.83,16.79,16.79,0,0,0-3.91,4.63,14.1,14.1,0,0,0-1.83,6.3q0,1.46,1.24,1.47a6.93,6.93,0,0,0,2.93-.64,11.45,11.45,0,0,0,2.66-1.72,17.49,17.49,0,0,0,2.37-2.47,31.43,31.43,0,0,0,2-2.89q.94-1.5,1.69-3t1.31-2.76l.52-1.13Q1082.44,296.26,1082.85,295.38Z"/><path class="cls-2" d="M1100.36,293.73a3.93,3.93,0,0,1,1.43-1.46,3.4,3.4,0,0,1,1.65-.44,3.48,3.48,0,0,1,2.4.9,2.93,2.93,0,0,1,1,2.29c0,.22-.06.44-.09.66a2.07,2.07,0,0,1-.24.66q-.51,1-.84,1.61l-.61,1.23-.53,1.12-.62,1.32q-.44.91-1,2t-1,2.21A22.94,22.94,0,0,0,1101,308a6.74,6.74,0,0,0-.35,2,1.43,1.43,0,0,0,.49,1.3,2.64,2.64,0,0,0,1.41.31,5.84,5.84,0,0,0,2.14-.44,14.44,14.44,0,0,0,2.25-1.13,20.35,20.35,0,0,0,2.24-1.59q1.1-.89,2.07-1.81t1.8-1.75q.83-.84,1.38-1.5a2.16,2.16,0,0,1,1.47-.69,1.28,1.28,0,0,1,1.08.59,2.52,2.52,0,0,1,.42,1.5,4.46,4.46,0,0,1-.42,1.79,5.28,5.28,0,0,1-1.38,1.79q-1.87,1.9-3.82,3.64a34,34,0,0,1-4,3.07,22.28,22.28,0,0,1-4.09,2.13,11.25,11.25,0,0,1-4.14.8,6.76,6.76,0,0,1-4.67-1.53,6,6,0,0,1-1.69-4.74,11.57,11.57,0,0,1,.48-3.29,27.45,27.45,0,0,1,1.14-3.13q.66-1.52,1.4-2.93t1.25-2.69q.18-.47.64-1.46t1-2Zm4-8.23a5.28,5.28,0,0,1,.31-1.74,5.05,5.05,0,0,1,.94-1.63,5,5,0,0,1,1.56-1.21,4.83,4.83,0,0,1,2.22-.47,4.21,4.21,0,0,1,3,.83,2.78,2.78,0,0,1,.84,2.07,5,5,0,0,1-.28,1.54,5.17,5.17,0,0,1-.83,1.56,4.45,4.45,0,0,1-1.43,1.19,4.32,4.32,0,0,1-2.09.47,5.33,5.33,0,0,1-3.18-.72A2.6,2.6,0,0,1,1104.4,285.49Z"/><path class="cls-2" d="M1127.58,290.59a13.4,13.4,0,0,1,3,.37,9.13,9.13,0,0,1,2.95,1.25,7.34,7.34,0,0,1,2.25,2.33,6.65,6.65,0,0,1,.89,3.57,12.44,12.44,0,0,1-.3,2.51,19.41,19.41,0,0,1-.88,2.95,2.05,2.05,0,0,0,.84.62,2.82,2.82,0,0,0,1,.19,4,4,0,0,0,1.7-.44,12.94,12.94,0,0,0,1.92-1.13,22.1,22.1,0,0,0,2-1.57q1-.88,1.87-1.75t1.6-1.66q.71-.79,1.19-1.33a.85.85,0,0,1,.62-.25,1.15,1.15,0,0,1,.92.53,2.42,2.42,0,0,1,.4,1.48,5.43,5.43,0,0,1-.57,2.2,8.17,8.17,0,0,1-2.11,2.6l-2,2.19a27.32,27.32,0,0,1-2.42,2.34,16,16,0,0,1-2.68,1.86,5.72,5.72,0,0,1-2.79.76,5.91,5.91,0,0,1-1.85-.3,6.65,6.65,0,0,1-1.81-1,22.31,22.31,0,0,1-3,3.73,18.46,18.46,0,0,1-3.76,2.89,19.15,19.15,0,0,1-4.47,1.88,18.76,18.76,0,0,1-5.11.67,8.5,8.5,0,0,1-2.38-.41,8,8,0,0,1-2.58-1.34,7.78,7.78,0,0,1-2.06-2.44,7.38,7.38,0,0,1-.83-3.66,15.86,15.86,0,0,1,.48-3.51,23.38,23.38,0,0,1,1.45-4.23,26.7,26.7,0,0,1,2.46-4.32,19.14,19.14,0,0,1,3.54-3.84,17.15,17.15,0,0,1,4.69-2.74A15.81,15.81,0,0,1,1127.58,290.59Zm-1.92,6.44a6.88,6.88,0,0,0-3.32.85,10,10,0,0,0-2.82,2.27,11.47,11.47,0,0,0-2,3.18,9.46,9.46,0,0,0-.74,3.64,11.54,11.54,0,0,0,.11,1.52,4.94,4.94,0,0,0,.46,1.54,3.15,3.15,0,0,0,1,1.19,2.94,2.94,0,0,0,1.76.48,6.59,6.59,0,0,0,3.28-.89,10.58,10.58,0,0,0,2.84-2.34,11.56,11.56,0,0,0,2-3.27,9.88,9.88,0,0,0,.74-3.7,13.27,13.27,0,0,0-.09-1.52,4.1,4.1,0,0,0-.44-1.45,2.84,2.84,0,0,0-1-1.08A3.31,3.31,0,0,0,1125.66,297Z"/><g class="cls-3"><polygon class="cls-4" points="415.15 228.34 409.19 204.86 409.19 204.86 409.19 204.86 407.56 198.4 410.92 162.27 409.19 136.42 409.19 136.42 404.64 68.36 375.65 55 353.52 70.9 353.59 70.71 306.3 104.85 302.97 165.41 303.06 165.51 303.06 165.51 302.97 165.41 302.61 165.41 265.26 165.41 263.16 165.41 236.99 165.41 233.47 165.41 196.13 165.41 192.79 104.85 145.5 70.71 145.57 70.9 123.44 55 94.45 68.36 89.9 136.42 89.9 136.42 88.17 162.27 91.54 198.4 89.9 204.86 89.9 204.86 89.9 204.86 83.94 228.34 117.24 245.29 117.24 354.27 148.01 385.56 148.01 401.52 185.7 424.17 194.17 432.51 302.97 432.51 311.17 424.17 348.85 401.52 348.85 385.85 359.42 375.1 359.42 375.1 365.87 368.54 373.73 360.55 373.73 360.55 379.9 354.27 379.9 275.68 379.9 272.15 379.9 246.27 379.91 246.28 415.15 228.34"/><polygon class="cls-5" points="411.16 225.72 405.2 202.24 405.2 202.24 405.2 202.24 403.56 195.78 406.93 159.65 405.2 133.8 405.2 133.8 400.64 65.74 371.65 52.38 349.53 68.28 349.6 68.09 302.31 102.23 298.97 162.79 299.07 162.89 299.07 162.89 298.97 162.79 298.62 162.79 261.26 162.79 259.16 162.79 233 162.79 229.48 162.79 192.13 162.79 188.79 102.23 141.5 68.09 141.57 68.28 119.44 52.38 90.45 65.74 85.9 133.8 85.9 133.8 84.17 159.65 87.54 195.78 85.9 202.24 85.9 202.24 85.9 202.24 79.94 225.72 113.25 242.68 113.25 351.66 144.01 382.94 144.01 398.9 181.7 421.55 190.18 429.89 298.97 429.89 307.17 421.55 344.85 398.9 344.85 383.23 355.42 372.48 355.42 372.48 361.87 365.93 369.73 357.93 369.73 357.93 375.9 351.66 375.9 273.06 375.9 269.53 375.9 243.65 375.91 243.66 411.16 225.72"/><polygon class="cls-6" points="407.16 223.1 401.2 199.62 401.2 199.62 401.2 199.62 399.56 193.16 402.93 157.03 401.2 131.18 401.2 131.18 396.65 63.13 367.65 49.76 345.53 65.66 345.6 65.47 298.31 99.61 294.97 160.17 295.07 160.27 295.07 160.27 294.97 160.17 294.62 160.17 257.27 160.17 255.17 160.17 229 160.17 225.48 160.17 188.13 160.17 184.79 99.61 137.5 65.47 137.57 65.66 115.45 49.76 86.46 63.13 81.9 131.18 81.9 131.18 80.17 157.03 83.54 193.16 81.91 199.62 81.9 199.62 81.9 199.62 75.94 223.1 109.25 240.06 109.25 349.04 140.02 380.32 140.02 396.28 177.7 418.93 186.18 427.27 294.97 427.27 303.17 418.93 340.85 396.28 340.85 380.61 351.43 369.86 351.43 369.86 357.87 363.31 365.74 355.31 365.74 355.31 371.9 349.04 371.9 270.44 371.9 266.91 371.9 241.03 371.91 241.04 407.16 223.1"/><polygon class="cls-7" points="403.16 220.48 397.2 197 397.2 197 397.2 197 395.56 190.55 398.93 154.41 397.2 128.56 397.2 128.56 392.65 60.51 363.66 47.14 341.53 63.05 341.6 62.85 294.31 96.99 290.98 157.55 291.07 157.65 291.07 157.65 290.98 157.55 290.62 157.55 253.27 157.55 251.17 157.55 225 157.55 221.48 157.55 184.13 157.55 180.8 96.99 133.51 62.85 133.58 63.05 111.45 47.14 82.46 60.51 77.91 128.56 77.91 128.56 76.18 154.41 79.55 190.55 77.91 197 77.91 197 77.91 197 71.95 220.48 105.25 237.44 105.25 346.42 136.02 377.7 136.02 393.66 173.71 416.31 182.18 424.65 290.98 424.65 299.17 416.31 336.86 393.66 336.86 377.99 347.43 367.24 347.43 367.24 353.88 360.69 361.74 352.69 361.74 352.69 367.91 346.42 367.91 267.82 367.91 264.29 367.91 238.42 367.92 238.43 403.16 220.48"/><polygon class="cls-8" points="399.16 217.86 393.2 194.38 393.2 194.38 393.2 194.38 391.57 187.93 394.94 151.79 393.2 125.94 393.2 125.94 388.65 57.89 359.66 44.52 337.54 60.43 337.6 60.23 290.32 94.37 286.98 154.93 287.08 155.03 287.08 155.03 286.98 154.93 286.62 154.93 249.27 154.93 247.17 154.93 221 154.93 217.49 154.93 180.14 154.93 176.8 94.37 129.51 60.23 129.58 60.43 107.45 44.52 78.46 57.89 73.91 125.94 73.91 125.94 72.18 151.79 75.55 187.93 73.91 194.38 73.91 194.38 73.91 194.38 67.95 217.86 101.25 234.82 101.25 343.8 132.02 375.09 132.02 391.04 169.71 413.69 178.19 422.03 286.98 422.03 295.18 413.69 332.86 391.04 332.86 375.37 343.43 364.62 343.43 364.62 349.88 358.07 357.74 350.07 357.74 350.07 363.91 343.8 363.91 265.21 363.91 261.67 363.91 235.8 363.92 235.81 399.16 217.86"/><polygon class="cls-9" points="395.17 215.25 389.21 191.76 389.21 191.76 389.21 191.76 387.57 185.31 390.94 149.18 389.21 123.32 389.21 123.32 384.65 55.27 355.66 41.9 333.54 57.81 333.61 57.61 286.32 91.75 282.98 152.31 283.08 152.41 283.08 152.41 282.98 152.31 282.63 152.31 245.28 152.31 243.18 152.31 217.01 152.31 213.49 152.31 176.14 152.31 172.8 91.75 125.51 57.61 125.58 57.81 103.46 41.9 74.47 55.27 69.91 123.32 69.91 123.32 68.18 149.18 71.55 185.31 69.91 191.76 69.91 191.76 69.91 191.76 63.95 215.25 97.26 232.2 97.26 341.18 128.02 372.47 128.02 388.42 165.71 411.08 174.19 419.41 282.98 419.41 291.18 411.07 328.86 388.42 328.86 372.75 339.43 362 339.43 362 345.88 355.45 353.74 347.45 353.74 347.45 359.91 341.18 359.91 262.59 359.91 259.05 359.91 233.18 359.92 233.19 395.17 215.25"/><polygon class="cls-10" points="391.17 212.63 385.21 189.14 385.21 189.14 385.21 189.14 383.57 182.69 386.94 146.56 385.21 120.7 385.21 120.7 380.66 52.65 351.67 39.28 329.54 55.19 329.61 54.99 282.32 89.13 278.98 149.69 279.08 149.79 279.08 149.79 278.98 149.69 278.63 149.69 241.28 149.69 239.18 149.69 213.01 149.69 209.49 149.69 172.14 149.69 168.81 89.13 121.52 54.99 121.58 55.19 99.46 39.28 70.47 52.65 65.92 120.7 65.92 120.7 64.19 146.56 67.55 182.69 65.92 189.14 65.92 189.14 65.92 189.14 59.96 212.63 93.26 229.58 93.26 338.56 124.03 369.85 124.03 385.8 161.71 408.46 170.19 416.79 278.98 416.79 287.18 408.45 324.87 385.8 324.87 370.14 335.44 359.39 335.44 359.39 341.88 352.83 349.75 344.83 349.75 344.83 355.91 338.56 355.91 259.97 355.91 256.44 355.91 230.56 355.92 230.57 391.17 212.63"/><polygon class="cls-11" points="387.17 210.01 381.21 186.53 381.21 186.53 381.21 186.52 379.58 180.07 382.94 143.94 381.21 118.08 381.21 118.08 376.66 50.03 347.67 36.66 325.55 52.57 325.61 52.37 278.32 86.51 274.99 147.07 275.08 147.17 275.08 147.17 274.99 147.07 274.63 147.07 237.28 147.07 235.18 147.07 209.01 147.07 205.5 147.07 168.15 147.07 164.81 86.51 117.52 52.37 117.59 52.57 95.46 36.66 66.47 50.03 61.92 118.08 61.92 118.08 60.19 143.94 63.56 180.07 61.92 186.52 61.92 186.53 61.92 186.53 55.96 210.01 89.26 226.96 89.26 335.94 120.03 367.23 120.03 383.19 157.72 405.84 166.19 414.17 274.99 414.17 283.19 405.84 320.87 383.19 320.87 367.52 331.44 356.77 331.44 356.77 337.89 350.21 345.75 342.21 345.75 342.21 351.92 335.94 351.92 257.35 351.92 253.82 351.92 227.94 351.93 227.95 387.17 210.01"/><polygon class="cls-12" points="383.18 207.39 377.22 183.91 377.22 183.91 377.22 183.91 375.58 177.45 378.95 141.32 377.22 115.46 377.22 115.47 372.66 47.41 343.67 34.05 321.55 49.95 321.62 49.76 274.33 83.89 270.99 144.46 271.09 144.56 271.09 144.56 270.99 144.46 270.64 144.46 233.28 144.46 231.18 144.46 205.02 144.46 201.5 144.46 164.15 144.46 160.81 83.89 113.52 49.76 113.59 49.95 91.47 34.05 62.48 47.41 57.92 115.47 57.92 115.46 56.19 141.32 59.56 177.45 57.92 183.91 57.92 183.91 57.92 183.91 51.96 207.39 85.27 224.34 85.27 333.32 116.03 364.61 116.03 380.57 153.72 403.22 162.2 411.56 270.99 411.56 279.19 403.22 316.87 380.57 316.87 364.9 327.44 354.15 327.44 354.15 333.89 347.59 341.75 339.6 341.75 339.6 347.92 333.32 347.92 254.73 347.92 251.2 347.92 225.32 347.93 225.33 383.18 207.39"/><polygon class="cls-13" points="379.18 204.77 373.22 181.29 373.22 181.29 373.22 181.29 371.58 174.83 374.95 138.7 373.22 112.84 373.22 112.85 368.67 44.79 339.68 31.43 317.55 47.33 317.62 47.14 270.33 81.28 266.99 141.84 267.09 141.94 267.09 141.94 266.99 141.84 266.64 141.84 229.29 141.84 227.19 141.84 201.02 141.84 197.5 141.84 160.15 141.84 156.81 81.28 109.53 47.14 109.59 47.33 87.47 31.43 58.48 44.79 53.92 112.85 53.92 112.84 52.2 138.7 55.56 174.83 53.92 181.29 53.92 181.29 53.92 181.29 47.97 204.77 81.27 221.72 81.27 330.7 112.04 361.99 112.04 377.95 149.72 400.6 158.2 408.94 266.99 408.94 275.19 400.6 312.87 377.95 312.87 362.28 323.44 351.53 323.44 351.53 329.89 344.97 337.75 336.98 337.75 336.98 343.92 330.7 343.92 252.11 343.92 248.58 343.92 222.7 343.93 222.71 379.18 204.77"/><polygon class="cls-14" points="375.18 202.15 369.22 178.67 369.22 178.67 369.22 178.67 367.58 172.21 370.95 136.08 369.22 110.23 369.22 110.23 364.67 42.17 335.68 28.81 313.55 44.71 313.62 44.52 266.33 78.66 263 139.22 263.09 139.32 263.09 139.32 263 139.22 262.64 139.22 225.29 139.22 223.19 139.22 197.02 139.22 193.5 139.22 156.16 139.22 152.82 78.66 105.53 44.52 105.6 44.71 83.47 28.81 54.48 42.17 49.93 110.23 49.93 110.23 48.2 136.08 51.57 172.21 49.93 178.67 49.93 178.67 49.93 178.67 43.97 202.15 77.27 219.1 77.27 328.08 108.04 359.37 108.04 375.33 145.72 397.98 154.2 406.32 263 406.32 271.19 397.98 308.88 375.33 308.88 359.66 319.45 348.91 319.45 348.91 325.89 342.35 333.76 334.36 333.76 334.36 339.93 328.08 339.93 249.49 339.93 245.96 339.93 220.08 339.94 220.09 375.18 202.15"/><polygon class="cls-15" points="371.19 199.53 365.23 176.05 365.23 176.05 365.23 176.05 363.59 169.59 366.95 133.46 365.23 107.61 365.23 107.61 360.67 39.55 331.68 26.19 309.56 42.09 309.63 41.9 262.34 76.04 259 136.6 259.1 136.7 259.1 136.7 259 136.6 258.64 136.6 221.29 136.6 219.19 136.6 193.02 136.6 189.51 136.6 152.16 136.6 148.82 76.04 101.53 41.9 101.6 42.09 79.47 26.19 50.48 39.55 45.93 107.61 45.93 107.61 44.2 133.46 47.57 169.59 45.93 176.05 45.93 176.05 45.93 176.05 39.97 199.53 73.28 216.49 73.28 325.47 104.04 356.75 104.04 372.71 141.73 395.36 150.21 403.7 259 403.7 267.2 395.36 304.88 372.71 304.88 357.04 315.45 346.29 315.45 346.29 321.9 339.74 329.76 331.74 329.76 331.74 335.93 325.47 335.93 246.87 335.93 243.34 335.93 217.47 335.94 217.47 371.19 199.53"/><polygon class="cls-16" points="367.19 196.91 361.23 173.43 361.23 173.43 361.23 173.43 359.59 166.98 362.96 130.84 361.23 104.99 361.23 104.99 356.68 36.94 327.68 23.57 305.56 39.48 305.63 39.28 258.34 73.42 255 133.98 255.1 134.08 255.1 134.08 255 133.98 254.65 133.98 217.3 133.98 215.19 133.98 189.03 133.98 185.51 133.98 148.16 133.98 144.82 73.42 97.53 39.28 97.6 39.48 75.48 23.57 46.49 36.94 41.93 104.99 41.93 104.99 40.2 130.84 43.57 166.98 41.93 173.43 41.93 173.43 41.93 173.43 35.97 196.91 69.28 213.87 69.28 322.85 100.05 354.13 100.05 370.09 137.73 392.74 146.21 401.08 255 401.08 263.2 392.74 300.88 370.09 300.88 354.42 311.45 343.67 311.45 343.67 317.9 337.12 325.76 329.12 325.76 329.12 331.93 322.85 331.93 244.25 331.93 240.72 331.93 214.85 331.94 214.85 367.19 196.91"/><polygon class="cls-17" points="363.19 194.29 357.23 170.81 357.23 170.81 357.23 170.81 355.59 164.36 358.96 128.22 357.23 102.37 357.23 102.37 352.68 34.32 323.69 20.95 301.56 36.86 301.63 36.66 254.34 70.8 251 131.36 251.1 131.46 251.1 131.46 251 131.36 250.65 131.36 213.3 131.36 211.2 131.36 185.03 131.36 181.51 131.36 144.16 131.36 140.83 70.8 93.54 36.66 93.61 36.86 71.48 20.95 42.49 34.32 37.94 102.37 37.94 102.37 36.21 128.22 39.57 164.36 37.94 170.81 37.94 170.81 37.94 170.81 31.98 194.29 65.28 211.25 65.28 320.23 96.05 351.51 96.05 367.47 133.73 390.13 142.21 398.46 251 398.46 259.2 390.12 296.89 367.47 296.89 351.8 307.46 341.05 307.46 341.05 313.9 334.5 321.77 326.5 321.77 326.5 327.94 320.23 327.94 241.63 327.94 238.1 327.94 212.23 327.94 212.24 363.19 194.29"/><polygon class="cls-18" points="359.19 191.68 353.23 168.19 353.23 168.19 353.23 168.19 351.6 161.74 354.96 125.61 353.23 99.75 353.23 99.75 348.68 31.7 319.69 18.33 297.56 34.24 297.63 34.04 250.34 68.18 247.01 128.74 247.1 128.84 247.1 128.84 247.01 128.74 246.65 128.74 209.3 128.74 207.2 128.74 181.03 128.74 177.52 128.74 140.17 128.74 136.83 68.18 89.54 34.04 89.61 34.24 67.48 18.33 38.49 31.7 33.94 99.75 33.94 99.75 32.21 125.61 35.58 161.74 33.94 168.19 33.94 168.19 33.94 168.19 27.98 191.68 61.28 208.63 61.28 317.61 92.05 348.9 92.05 364.85 129.74 387.51 138.21 395.84 247.01 395.84 255.21 387.5 292.89 364.85 292.89 349.18 303.46 338.43 303.46 338.43 309.91 331.88 317.77 323.88 317.77 323.88 323.94 317.61 323.94 239.02 323.94 235.48 323.94 209.61 323.95 209.62 359.19 191.68"/><polygon class="cls-19" points="355.2 189.06 349.24 165.57 349.24 165.57 349.24 165.57 347.6 159.12 350.97 122.99 349.24 97.13 349.24 97.13 344.68 29.08 315.69 15.71 293.57 31.62 293.64 31.42 246.35 65.56 243.01 126.12 243.11 126.22 243.11 126.22 243.01 126.12 242.66 126.12 205.31 126.12 203.2 126.12 177.04 126.12 173.52 126.12 136.17 126.12 132.83 65.56 85.54 31.42 85.61 31.62 63.48 15.71 34.49 29.08 29.94 97.13 29.94 97.13 28.21 122.99 31.58 159.12 29.94 165.57 29.94 165.57 29.94 165.57 23.98 189.06 57.29 206.01 57.29 314.99 88.05 346.28 88.05 362.23 125.74 384.89 134.22 393.22 243.01 393.22 251.21 384.88 288.89 362.23 288.89 346.56 299.46 335.81 299.46 335.81 305.91 329.26 313.77 321.26 313.77 321.26 319.94 314.99 319.94 236.4 319.94 232.86 319.94 206.99 319.95 207 355.2 189.06"/><polygon class="cls-20" points="351.2 186.44 345.24 162.96 345.24 162.96 345.24 162.95 343.6 156.5 346.97 120.37 345.24 94.51 345.24 94.52 340.69 26.46 311.7 13.1 289.57 29 289.64 28.8 242.35 62.94 239.01 123.5 239.11 123.6 239.11 123.6 239.01 123.5 238.66 123.5 201.31 123.5 199.21 123.5 173.04 123.5 169.52 123.5 132.17 123.5 128.83 62.94 81.55 28.8 81.61 29 59.49 13.1 30.5 26.46 25.94 94.52 25.95 94.51 24.21 120.37 27.58 156.5 25.95 162.95 25.94 162.96 25.95 162.96 19.99 186.44 53.29 203.39 53.29 312.37 84.06 343.66 84.06 359.62 121.74 382.27 130.22 390.6 239.01 390.6 247.21 382.27 284.89 359.62 284.89 343.95 295.46 333.2 295.46 333.2 301.91 326.64 309.77 318.64 309.77 318.64 315.94 312.37 315.94 233.78 315.94 230.25 315.94 204.37 315.95 204.38 351.2 186.44"/><polygon class="cls-21" points="347.2 183.82 341.24 160.34 341.24 160.34 341.24 160.34 339.61 153.88 342.97 117.75 341.24 91.89 341.24 91.9 336.69 23.84 307.7 10.48 285.57 26.38 285.64 26.18 238.35 60.32 235.02 120.89 235.11 120.98 235.11 120.98 235.02 120.89 234.66 120.89 197.31 120.89 195.21 120.89 169.04 120.89 165.52 120.89 128.18 120.89 124.84 60.32 77.55 26.18 77.62 26.38 55.49 10.48 26.5 23.84 21.95 91.9 21.95 91.89 20.22 117.75 23.59 153.88 21.95 160.34 21.95 160.34 21.95 160.34 15.99 183.82 49.29 200.77 49.29 309.75 80.06 341.04 80.06 357 117.75 379.65 126.22 387.98 235.02 387.98 243.21 379.65 280.9 357 280.9 341.33 291.47 330.58 291.47 330.58 297.92 324.02 305.78 316.03 305.78 316.02 311.95 309.75 311.95 231.16 311.95 227.63 311.95 201.75 311.96 201.76 347.2 183.82"/><polygon class="cls-22" points="343.2 181.2 337.25 157.72 337.25 157.72 337.25 157.72 335.61 151.26 338.98 115.13 337.25 89.28 337.25 89.28 332.69 21.22 303.7 7.86 281.58 23.76 281.64 23.57 234.36 57.7 231.02 118.27 231.12 118.37 231.12 118.37 231.02 118.27 230.66 118.27 193.31 118.27 191.21 118.27 165.04 118.27 161.53 118.27 124.18 118.27 120.84 57.7 73.55 23.57 73.62 23.76 51.49 7.86 22.5 21.22 17.95 89.28 17.95 89.28 16.22 115.13 19.59 151.26 17.95 157.72 17.95 157.72 17.95 157.72 11.99 181.2 45.3 198.15 45.3 307.13 76.06 338.42 76.06 354.38 113.75 377.03 122.22 385.37 231.02 385.37 239.22 377.03 276.9 354.38 276.9 338.71 287.47 327.96 287.47 327.96 293.92 321.4 301.78 313.41 301.78 313.41 307.95 307.13 307.95 228.54 307.95 225.01 307.95 199.13 307.96 199.14 343.2 181.2"/><polygon class="cls-23" points="339.21 178.58 333.25 155.1 333.25 155.1 333.25 155.1 331.61 148.64 334.98 112.51 333.25 86.66 333.25 86.66 328.69 18.6 299.7 5.24 277.58 21.14 277.65 20.95 230.36 55.09 227.02 115.65 227.12 115.75 227.12 115.75 227.02 115.65 226.67 115.65 189.32 115.65 187.22 115.65 161.05 115.65 157.53 115.65 120.18 115.65 116.84 55.09 69.55 20.95 69.62 21.14 47.5 5.24 18.51 18.6 13.95 86.66 13.95 86.66 12.22 112.51 15.59 148.64 13.95 155.1 13.95 155.1 13.95 155.1 7.99 178.58 41.3 195.53 41.3 304.51 72.06 335.8 72.06 351.76 109.75 374.41 118.23 382.75 227.02 382.75 235.22 374.41 272.9 351.76 272.9 336.09 283.47 325.34 283.47 325.34 289.92 318.78 297.78 310.79 297.78 310.79 303.95 304.51 303.95 225.92 303.95 222.39 303.95 196.51 303.96 196.52 339.21 178.58"/><polygon class="cls-24" points="335.21 175.96 329.25 152.48 329.25 152.48 329.25 152.48 327.61 146.02 330.98 109.89 329.25 84.04 329.25 84.04 324.7 15.98 295.71 2.62 273.58 18.52 273.65 18.33 226.36 52.47 223.02 113.03 223.12 113.13 223.12 113.13 223.02 113.03 222.67 113.03 185.32 113.03 183.22 113.03 157.05 113.03 153.53 113.03 116.18 113.03 112.85 52.47 65.56 18.33 65.63 18.52 43.5 2.62 14.51 15.98 9.96 84.04 9.96 84.04 8.23 109.89 11.6 146.02 9.96 152.48 9.96 152.48 9.96 152.48 4 175.96 37.3 192.91 37.3 301.9 68.07 333.18 68.07 349.14 105.75 371.79 114.23 380.13 223.02 380.13 231.22 371.79 268.91 349.14 268.91 333.47 279.48 322.72 279.48 322.72 285.92 316.16 293.79 308.17 293.79 308.17 299.95 301.9 299.95 223.3 299.95 219.77 299.95 193.89 299.96 193.9 335.21 175.96"/><polygon class="cls-25" points="331.21 173.34 325.25 149.86 325.25 149.86 325.25 149.86 323.62 143.41 326.98 107.27 325.25 81.42 325.25 81.42 320.7 13.37 291.71 0 269.58 15.9 269.65 15.71 222.37 49.85 219.03 110.41 219.13 110.51 219.13 110.51 219.03 110.41 218.67 110.41 181.32 110.41 179.22 110.41 153.05 110.41 149.54 110.41 112.19 110.41 108.85 49.85 61.56 15.71 61.63 15.9 39.5 0 10.51 13.37 5.96 81.42 5.96 81.42 4.23 107.27 7.6 143.41 5.96 149.86 5.96 149.86 5.96 149.86 0 173.34 33.3 190.3 33.3 299.28 64.07 330.56 64.07 346.52 101.76 369.17 110.23 377.51 219.03 377.51 227.23 369.17 264.91 346.52 264.91 330.85 275.48 320.1 275.48 320.1 281.93 313.55 289.79 305.55 289.79 305.55 295.96 299.28 295.96 220.68 295.96 217.15 295.96 191.28 295.97 191.28 331.21 173.34"/></g><polygon class="cls-26" points="110.23 377.51 33.3 299.28 33.3 188.64 110.23 110.41 219.03 110.41 295.96 188.64 295.96 299.28 219.03 377.51 110.23 377.51"/><polygon class="cls-27" points="326.98 107.27 320.7 13.37 291.71 0 222.37 49.85 218.93 114.11 295.97 191.28 331.21 173.34 323.62 143.41 326.98 107.27"/><polygon class="cls-28" points="313.4 127.05 313.4 18.87 291.71 0 239.3 49.99 239.3 95.64 256.43 148.44 275.07 167.4 325.25 149.86 313.4 127.05"/><polygon class="cls-29" points="282.28 47.03 257.19 52.95 239.3 95.64 256.43 148.44 275.07 167.4 295.96 160.1 304.51 95.64 282.28 47.03"/><polygon class="cls-30" points="275.07 119.1 246.91 119.1 256.43 148.44 275.07 167.4 295.96 160.1 275.07 119.1"/><polygon class="cls-31" points="313.4 18.87 291.71 0 325.25 90 313.4 18.87"/><polygon class="cls-32" points="275.07 167.4 295.96 190.98 331.21 173.34 275.07 167.4"/><polygon class="cls-33" points="222.37 49.85 219.03 110.41 256.43 148.44 222.37 49.85"/><polygon class="cls-34" points="320.7 13.37 291.71 0 313.4 18.87 325.25 81.42 320.7 13.37"/><polygon class="cls-32" points="322.99 143.25 308.48 170.94 331.21 173.34 322.99 143.25"/><polygon class="cls-34" points="275.07 167.4 295.96 190.98 304.51 186.71 275.07 167.4"/><polygon class="cls-32" points="222.37 49.85 240.44 99.15 269.65 15.71 222.37 49.85"/><polygon class="cls-35" points="269.65 143.25 254.75 143.25 256.43 148.44 275.07 167.4 269.65 143.25"/><polygon class="cls-36" points="4.23 107.27 10.51 13.37 39.5 0 108.85 49.85 112.28 114.11 35.25 191.28 0 173.34 7.6 143.41 4.23 107.27"/><polygon class="cls-28" points="17.82 127.05 17.82 18.87 39.5 0 91.91 49.99 91.91 95.64 74.78 148.44 56.14 167.4 5.96 149.86 17.82 127.05"/><polygon class="cls-29" points="48.94 47.03 74.03 52.95 91.91 95.64 74.78 148.44 56.14 167.4 35.26 160.1 26.71 95.64 48.94 47.03"/><polygon class="cls-30" points="56.14 119.1 84.3 119.1 74.78 148.44 56.14 167.4 35.26 160.1 56.14 119.1"/><polygon class="cls-31" points="17.82 18.87 39.5 0 5.96 90 17.82 18.87"/><polygon class="cls-32" points="56.14 167.4 35.26 190.98 0 173.34 56.14 167.4"/><polygon class="cls-33" points="108.85 49.85 112.19 110.41 74.78 148.44 108.85 49.85"/><polygon class="cls-34" points="10.51 13.37 39.5 0 17.82 18.87 5.96 81.42 10.51 13.37"/><polygon class="cls-32" points="8.22 143.25 22.73 170.94 0 173.34 8.22 143.25"/><polygon class="cls-34" points="56.14 167.4 35.26 190.98 26.71 186.71 56.14 167.4"/><polygon class="cls-32" points="108.85 49.85 90.78 99.15 61.56 15.71 108.85 49.85"/><polygon class="cls-35" points="61.56 143.25 76.47 143.25 74.78 148.44 56.14 167.4 61.56 143.25"/><path class="cls-26" d="M76.47,143.25"/><polygon class="cls-37" points="112.19 110.41 74.78 148.44 149.54 110.41 112.19 110.41"/><polygon class="cls-37" points="218.67 110.41 256.08 148.44 181.32 110.41 218.67 110.41"/><polygon class="cls-38" points="232.66 255.2 189.9 234.4 189.98 234.13 189.34 234.13 139.64 234.13 139 234.13 139.08 234.4 96.32 255.2 64.07 319.59 64.07 346.52 101.76 369.17 127.03 360.57 156.15 334.81 170.34 335.5 201.95 360.57 227.22 369.17 264.91 346.52 264.91 319.59 232.66 255.2"/><polygon class="cls-39" points="181.32 259.88 147.19 259.88 130.8 273.93 153.95 290.32 174.12 290.32 197.54 273.93 181.32 259.88"/><polygon class="cls-40" points="153.95 290.32 130.8 273.93 129.12 301.65 103.88 334.53 108.3 346.71 128.2 360.57 156.15 334.81 162.41 334.53 162.41 290.32 153.95 290.32"/><polygon class="cls-41" points="174.39 290.32 197.54 273.93 200.39 301.65 225.64 334.53 221.92 348.54 201.32 360.57 172.19 334.81 165.93 334.53 165.93 290.32 174.39 290.32"/><rect class="cls-42" x="162.41" y="290.32" width="3.51" height="44.21"/><polygon class="cls-43" points="153.95 290.32 130.8 273.93 148.37 295.4 162.41 301.65 162.41 290.32 153.95 290.32"/><polygon class="cls-44" points="173.22 290.32 165.93 290.32 165.93 301.65 180.56 295.79 197.54 273.93 173.22 290.32"/><polygon class="cls-45" points="180.56 295.79 165.93 301.65 165.93 334.53 172.19 334.81 191.68 352.09 189.34 301.65 180.56 295.79"/><polygon class="cls-46" points="149.11 295.79 162.41 301.65 162.41 334.53 155.55 334.81 137.83 350.92 139.96 301.65 149.11 295.79"/><polygon class="cls-33" points="197.54 273.93 180.56 295.79 189.34 301.65 200.39 301.65 197.54 273.93"/><polygon class="cls-33" points="130.73 273.93 148.88 295.79 140.1 301.65 129.05 301.65 130.73 273.93"/><polygon class="cls-33" points="256.43 317.25 231.22 270.42 197.54 273.93 200.39 301.65 225.64 334.53 223.34 346.93 201.32 360.57 227.22 369.17 264.91 346.52 256.43 317.25"/><polygon class="cls-47" points="197.54 273.93 200.39 301.65 225.64 334.53 220.75 348.54 201.32 360.57 218.7 366.27 245.7 349.85 246.91 330.52 222.83 291.22 197.54 273.93"/><g class="cls-48"><polygon class="cls-33" points="72.55 317.25 97.76 270.42 131.44 273.93 128.59 301.65 103.34 334.53 107.17 348.32 127.66 360.57 101.76 369.17 64.07 346.52 72.55 317.25"/><polygon class="cls-47" points="131.44 273.93 129.76 301.6 104.51 334.53 108.25 346.05 128.83 360.57 110.28 366.27 83.28 349.85 82.07 330.52 106.15 291.22 131.44 273.93"/></g><polygon class="cls-31" points="232.66 255.2 231.22 270.42 257.17 319.8 264.91 346.52 264.91 319.59 232.66 255.2"/><polygon class="cls-49" points="96.32 255.2 64.07 319.59 64.07 346.52 72.55 317.25 97.76 270.42 96.32 255.2"/><polygon class="cls-50" points="225.64 259.88 189.34 240.45 142.51 239.98 104.42 259.88 97.76 270.42 131.44 273.93 147.19 259.88 181.32 259.88 197.54 273.93 231.22 270.42 225.64 259.88"/><polygon class="cls-51" points="165.93 248.57 142.51 239.98 155.97 259.88 169.44 259.88 165.93 248.57"/><polygon class="cls-52" points="142.51 239.98 104.42 259.88 96.59 271.59 131.44 273.93 147.19 259.88 155.97 259.88 142.51 239.98"/><polygon class="cls-53" points="190.51 234.13 165.93 234.13 165.93 239.98 189.34 240.45 225.64 259.88 231.22 270.42 232.66 255.2 190.51 234.13"/><polygon class="cls-31" points="139.75 234.13 96.32 255.2 96.59 271.59 105.05 259.88 142.51 239.98 165.93 239.98 165.93 234.13 139.75 234.13"/><polygon class="cls-54" points="172.19 334.81 156.15 334.81 127.66 360.57 133.15 368.37 195.78 368 201.32 360.57 172.19 334.81"/><polygon class="cls-39" points="173.36 334.81 163.97 333.64 154.98 334.81 127.66 360.57 159.49 343.01 169.44 343.01 201.32 360.57 173.36 334.81"/><polygon class="cls-55" points="169.44 343.01 159.49 343.01 145.15 350.92 153.63 366.27 175.29 366.27 185.02 351.59 169.44 343.01"/><polygon class="cls-56" points="193.44 366.27 135.78 366.27 127.66 360.57 133.15 368.37 164.17 371.7 195.78 368 201.32 360.57 193.44 366.27"/><polygon class="cls-57" points="201.32 360.57 195.78 368 164.17 371.7 133.15 368.37 127.66 360.57 101.76 369.17 110.23 377.51 219.03 377.51 227.22 369.17 201.32 360.57"/><polygon class="cls-58" points="240.76 134.88 179.22 110.41 153.05 110.41 90.34 134.88 76.16 167.4 256.4 167.4 240.76 134.88"/><polygon class="cls-37" points="240.76 134.88 256.4 167.4 295.96 190.98 240.76 134.88"/><polygon class="cls-37" points="35.26 190.98 76.16 167.4 90.34 134.88 35.26 190.98"/><polygon class="cls-59" points="151.48 280.75 147.49 276.75 147.49 271.11 151.48 267.12 157.13 267.12 161.12 271.11 161.12 276.75 157.13 280.75 151.48 280.75"/><polygon class="cls-60" points="157.13 264.78 151.48 264.78 147.49 268.77 147.49 271.43 151.48 267.44 157.13 267.44 161.12 271.43 161.12 268.77 157.13 264.78"/><polygon class="cls-61" points="151.48 277.93 147.49 273.93 147.49 276.6 151.48 280.59 157.13 280.59 161.12 276.6 161.12 273.93 157.13 277.93 151.48 277.93"/><polygon class="cls-59" points="170.28 280.75 166.28 276.75 166.28 271.11 170.28 267.12 175.92 267.12 179.91 271.11 179.91 276.75 175.92 280.75 170.28 280.75"/><polygon class="cls-60" points="175.92 264.78 170.28 264.78 166.28 268.77 166.28 271.43 170.28 267.44 175.92 267.44 179.91 271.43 179.91 268.77 175.92 264.78"/><polygon class="cls-61" points="170.28 277.93 166.28 273.93 166.28 276.6 170.28 280.59 175.92 280.59 179.91 276.6 179.91 273.93 175.92 277.93 170.28 277.93"/><polygon class="cls-62" points="197.54 273.93 181.32 259.88 147.19 259.88 131.44 273.93 147.49 273.93 147.49 268.77 151.48 264.78 157.13 264.78 161.12 268.77 163.59 274.62 166.28 268.77 170.28 264.78 175.92 264.78 179.91 268.77 179.91 273.93 197.54 273.93"/><polygon class="cls-63" points="179.39 255.78 163.97 251.98 148.88 255.2 131.44 273.93 147.19 259.88 181.32 259.88 197.54 273.93 179.39 255.78"/><polygon class="cls-64" points="256.4 167.4 76.16 167.4 35.26 190.98 33.3 299.28 54.25 320.1 83.72 249.35 139.75 234.13 190.51 234.13 246.01 249.35 275.48 320.1 295.96 299.28 295.96 190.98 256.4 167.4"/><polygon class="cls-37" points="239.3 189.64 223.29 187.3 208.25 199 199.29 202.52 185.02 192 181.73 210.63 185.02 220.68 208.25 226.18 207.08 209.92 222.58 199 244.49 199 260.95 210.63 255.63 199.29 239.3 189.64"/><polygon class="cls-37" points="92.16 189.64 108.17 187.3 123.21 199 132.17 202.52 146.44 192 149.73 210.63 146.44 220.68 123.21 226.18 124.38 209.92 108.89 199 86.98 199 70.51 210.63 75.83 199.29 92.16 189.64"/><polygon class="cls-65" points="222.58 235.3 208.25 225.01 207.08 209.29 222.58 199 244.49 199 259.98 209.29 259.98 223.84 245.66 234.13 222.58 235.3"/><polygon class="cls-34" points="271.9 247 269.65 220.68 259.98 209.5 258.81 224.41 245.35 234.13 223.29 234.57 246.91 243.96 256.74 275.77 268.36 288.64 264.91 267.25 271.9 247"/><polygon class="cls-66" points="208.85 225.08 208.85 217.3 204.76 226.25 223.84 234.56 208.85 225.08"/><polygon class="cls-67" points="256.08 273.51 246.91 243.96 222.78 234.13 210.02 226.25 185.02 220.68 164.76 225.15 165.11 234.13 190.51 234.13 232.66 255.2 264.91 319.59 264.91 330.85 278.28 317.25 278.28 300.86 256.08 273.51"/><polygon class="cls-68" points="275.41 319.37 251.2 285.98 235.4 250.96 189.91 233.4 232.59 254.47 264.84 318.86 264.84 330.12 275.41 319.37"/><polygon class="cls-69" points="256.08 273.51 278.28 317.25 278.28 300.86 256.08 273.51"/><polygon class="cls-70" points="259.98 209.29 258.81 224.41 245.35 234.13 223.29 234.57 246.91 243.96 250.51 255.2 256.83 235.36 262.63 227.71 259.98 209.29"/><polygon class="cls-70" points="269.65 220.68 271.9 247 264.91 267.25 268.36 288.64 278.28 300.86 278.28 317.25 289.79 305.55 292.37 270.42 295.96 217.15 295.96 190.98 269.65 220.68"/><polygon class="cls-71" points="289.79 295.79 285.93 301.65 268.36 288.64 278.28 300.86 278.28 317.25 295.96 299.28 295.96 220.68 289.79 295.79"/><polygon class="cls-2" points="227.03 230.84 217.71 221.52 217.71 208.33 227.03 199 240.22 199 249.55 208.33 249.55 221.52 240.22 230.84 227.03 230.84"/><polygon class="cls-65" points="228.43 224.51 220.96 217.04 220.96 206.47 228.43 199 238.99 199 246.46 206.47 246.46 217.04 238.99 224.51 228.43 224.51"/><polygon class="cls-72" points="238.1 212.18 236.42 210.49 236.42 208.1 238.1 206.41 240.49 206.41 242.19 208.1 242.19 210.49 240.49 212.18 238.1 212.18"/><polygon class="cls-72" points="232.02 213.72 231.11 212.82 231.11 211.53 232.02 210.63 233.3 210.63 234.21 211.53 234.21 212.82 233.3 213.72 232.02 213.72"/><polygon class="cls-73" points="246.91 243.96 222.78 234.13 207.68 225.08 256.08 273.51 246.91 243.96"/><polygon class="cls-37" points="246.46 195.88 222.58 199 244.49 199 259.98 210.63 246.46 195.88"/><polygon class="cls-70" points="208.85 225.08 207.68 213.72 197.54 223.47 223.84 234.56 208.85 225.08"/><polygon class="cls-74" points="259.98 210.63 258.81 224.41 245.35 234.13 223.84 234.56 246.46 236.47 260.95 225.08 259.98 210.63"/><polygon class="cls-70" points="210.69 199 204.76 206.41 204.76 216.53 207.8 214.92 207.08 209.92 210.69 199"/><polygon class="cls-71" points="266.01 197.14 254.23 181.03 221.16 169.74 203.39 179.19 199.29 202.52 210.69 199 223.29 187.3 239.3 189.64 255.63 199.29 259.98 210.63 269.65 220.68 266.01 197.14"/><polygon class="cls-71" points="256.4 167.4 219.03 167.4 254.23 181.03 264.91 199 269.65 220.68 295.88 190.81 256.4 167.4"/><polygon class="cls-65" points="107.01 235.3 121.34 225.01 122.51 209.29 107.01 199 85.1 199 69.61 209.29 69.61 223.84 83.93 234.13 107.01 235.3"/><polygon class="cls-34" points="57.69 247 59.94 220.68 69.61 209.5 70.78 224.41 84.24 234.13 106.3 234.57 82.68 243.96 72.86 275.77 61.23 288.64 64.68 267.25 57.69 247"/><polygon class="cls-66" points="120.74 225.08 120.74 217.3 124.83 226.25 105.75 234.56 120.74 225.08"/><polygon class="cls-67" points="73.52 273.51 82.68 243.96 106.81 234.13 119.57 226.25 144.57 220.68 164.83 225.15 164.48 234.13 139.08 234.13 96.93 255.2 64.68 319.59 64.68 330.85 51.31 317.25 51.31 300.86 73.52 273.51"/><polygon class="cls-68" points="54.18 319.37 78.39 285.98 94.19 250.96 139.68 233.4 97 254.47 64.75 318.86 64.75 330.12 54.18 319.37"/><polygon class="cls-69" points="73.52 273.51 51.31 317.25 51.31 300.86 73.52 273.51"/><polygon class="cls-70" points="69.61 209.29 70.78 224.41 84.24 234.13 106.3 234.57 82.68 243.96 79.08 255.2 72.76 235.36 66.96 227.71 69.61 209.29"/><polygon class="cls-70" points="59.94 220.68 57.69 247 64.68 267.25 61.23 288.64 51.31 300.86 51.31 317.25 39.8 305.55 37.22 270.42 33.63 217.15 33.63 190.98 59.94 220.68"/><polygon class="cls-71" points="39.8 295.79 43.66 301.65 61.23 288.64 51.31 300.86 51.31 317.25 33.63 299.28 33.63 220.68 39.8 295.79"/><polygon class="cls-2" points="102.56 230.84 111.89 221.52 111.89 208.33 102.56 199 89.37 199 80.04 208.33 80.04 221.52 89.37 230.84 102.56 230.84"/><polygon class="cls-65" points="101.17 224.51 108.63 217.04 108.63 206.47 101.17 199 90.6 199 83.13 206.47 83.13 217.04 90.6 224.51 101.17 224.51"/><polygon class="cls-72" points="91.48 212.18 93.17 210.49 93.17 208.1 91.48 206.41 89.1 206.41 87.41 208.1 87.41 210.49 89.1 212.18 91.48 212.18"/><polygon class="cls-72" points="97.57 213.72 98.48 212.82 98.48 211.53 97.57 210.63 96.29 210.63 95.38 211.53 95.38 212.82 96.29 213.72 97.57 213.72"/><polygon class="cls-73" points="82.68 243.96 106.81 234.13 121.91 225.08 73.52 273.51 82.68 243.96"/><polygon class="cls-75" points="83.13 195.88 107.01 199 85.1 199 69.61 210.63 83.13 195.88"/><polygon class="cls-70" points="120.74 225.08 121.91 213.72 132.05 223.47 105.75 234.56 120.74 225.08"/><polygon class="cls-74" points="69.61 210.63 70.78 224.41 84.24 234.13 105.75 234.56 83.13 236.47 68.64 225.08 69.61 210.63"/><polygon class="cls-70" points="118.9 199 124.83 206.41 124.83 216.53 121.79 214.92 122.51 209.92 118.9 199"/><polygon class="cls-71" points="63.58 197.14 75.36 181.03 108.44 169.74 126.2 179.19 131.47 202.52 118.9 199 106.3 187.3 90.29 189.64 73.95 199.29 69.61 210.63 59.94 220.68 63.58 197.14"/><polygon class="cls-37" points="73.19 167.4 110.56 167.4 75.36 181.03 64.68 199 59.94 220.68 33.71 190.81 73.19 167.4"/><polygon class="cls-32" points="219.03 167.4 190.48 167.4 185.02 192 199.29 202.52 204.76 178.46 222.58 169.74 219.03 167.4"/><polygon class="cls-32" points="112.47 167.4 139.85 167.4 146.48 192 132.21 202.52 126.74 178.46 108.92 169.74 112.47 167.4"/><polygon class="cls-36" points="178.59 111.55 150.12 111.55 139.75 167.4 155.97 234.13 175.68 234.13 190.48 167.4 178.59 111.55"/><polygon class="cls-31" points="219.03 167.4 222.58 169.74 254.23 181.03 256.4 167.4 219.03 167.4"/><polygon class="cls-31" points="76.16 167.4 75.36 181.03 107.48 170.07 112.47 167.4 76.16 167.4"/><polygon class="cls-76" points="282.16 249.07 278.28 295.99 285.93 301.65 282.16 249.07"/><polygon class="cls-76" points="47.9 249.07 51.78 295.99 44.13 301.65 47.9 249.07"/><path d="M403.31,171.26c22.56,0,31.2,9.12,31.2,28.8,0,4.08-1.2,12-6.12,17.4,4.92,2.28,8.52,8.28,8.52,15.72,0,14.88-6.6,22.08-29.16,22.08H378.11a3.28,3.28,0,0,1-3.6-3.6V175c0-2.4,1.2-3.6,3.6-3.72Zm2.88,67c5.76,0,8.64-.6,8.64-6.24s-2.64-6.48-8.4-6.48h-7.8c-2.28,0-3.6,1.2-3.6,3.6v5.52c0,2.4,1.32,3.6,3.6,3.6Zm-1-30c5.76,0,8.64-.72,8.64-8.16s-2.88-8.16-8.64-8.16h-6.48c-2.28,0-3.6,1.2-3.6,3.6v9.12c0,2.4,1.32,3.6,3.6,3.6Z"/><path d="M461.87,171.26q3.6,0,3.6,3.6V231a3.28,3.28,0,0,0,3.6,3.6h26.76q3.6,0,3.6,3.6v13.44q0,3.6-3.6,3.6h-47.4a3.28,3.28,0,0,1-3.6-3.6v-76.8c0-2.4,1.32-3.6,3.6-3.6Z"/><path d="M523.19,171.26q3.6,0,3.6,3.6v47c0,9.24.6,14.88,9.48,14.88s9.48-5.64,9.48-14.88v-47c0-2.4,1.32-3.6,3.6-3.6h13.44q3.6,0,3.6,3.6v53.4c0,7.92-1.68,29.16-30.12,29.16s-30.12-21.24-30.12-29.16v-53.4c0-2.4,1.32-3.6,3.6-3.6Z"/><path d="M631.67,171.26q3.6,0,3.6,3.6V188.3c0,2.28-1.2,3.6-3.6,3.6h-29c-2.28,0-3.6,1.2-3.6,3.6v3.84a3.28,3.28,0,0,0,3.6,3.6h18.6q3.6,0,3.6,3.6V220c0,2.28-1.2,3.6-3.6,3.6h-18.6c-2.28,0-3.6,1.2-3.6,3.6V231a3.28,3.28,0,0,0,3.6,3.6h29q3.6,0,3.6,3.6v13.44q0,3.6-3.6,3.6h-50.4a3.28,3.28,0,0,1-3.6-3.6v-76.8c0-2.4,1.32-3.6,3.6-3.6Z"/><path d="M709.3,171.26c22.56,0,31.2,9.12,31.2,28.8,0,4.08-1.2,12-6.12,17.4,4.92,2.28,8.52,8.28,8.52,15.72,0,14.88-6.6,22.08-29.16,22.08H684.11a3.28,3.28,0,0,1-3.6-3.6V175c0-2.4,1.2-3.6,3.6-3.72Zm2.88,67c5.76,0,8.64-.6,8.64-6.24s-2.64-6.48-8.4-6.48h-7.8c-2.28,0-3.6,1.2-3.6,3.6v5.52c0,2.4,1.32,3.6,3.6,3.6Zm-1-30c5.76,0,8.64-.72,8.64-8.16s-2.88-8.16-8.64-8.16h-6.48c-2.28,0-3.6,1.2-3.6,3.6v9.12c0,2.4,1.32,3.6,3.6,3.6Z"/><path d="M767.14,171.26q3.6,0,3.6,3.6v47c0,9.24.6,14.88,9.48,14.88s9.48-5.64,9.48-14.88v-47c0-2.4,1.32-3.6,3.6-3.6h13.44q3.6,0,3.6,3.6v53.4c0,7.92-1.68,29.16-30.12,29.16s-30.12-21.24-30.12-29.16v-53.4c0-2.4,1.32-3.6,3.6-3.6Z"/><path d="M838.66,171.26q3.6,0,3.6,3.6V231a3.28,3.28,0,0,0,3.6,3.6h26.76q3.6,0,3.6,3.6v13.44q0,3.6-3.6,3.6h-47.4a3.28,3.28,0,0,1-3.6-3.6v-76.8c0-2.4,1.32-3.6,3.6-3.6Z"/><path d="M900.7,171.26q3.6,0,3.6,3.6V231a3.28,3.28,0,0,0,3.6,3.6h26.76q3.6,0,3.6,3.6v13.44q0,3.6-3.6,3.6h-47.4a3.28,3.28,0,0,1-3.6-3.6v-76.8c0-2.4,1.32-3.6,3.6-3.6Z"/><path d="M976.06,171.26c22.56,0,30,9.12,30,28.8v26.28c0,19.68-7.44,28.92-30,28.92H949.3a3.28,3.28,0,0,1-3.6-3.6V175c0-2.4,1.2-3.6,3.6-3.72Zm.36,63.36c5.76,0,8.64-1,8.64-8.16v-26.4c0-7.44-2.88-8.16-8.64-8.16h-6.48c-2.28,0-3.6,1.2-3.6,3.6V231a3.28,3.28,0,0,0,3.6,3.6Z"/><path d="M1075.9,228.25c0,7.92-1.68,29.16-30.12,29.16s-30.12-21.24-30.12-29.16v-30c0-7.92,1.68-29.16,30.12-29.16s30.12,21.24,30.12,29.16Zm-20.64-23.64c0-9.24-.6-14.88-9.48-14.88s-9.48,5.64-9.48,14.88v17.28c0,9.24.6,14.88,9.48,14.88s9.48-5.64,9.48-14.88Z"/><path d="M1085.5,198.26c0-7.92,1.68-29.16,30.12-29.16,25.2,0,29.4,16.56,30,25.92a3.52,3.52,0,0,1-3.12,4l-13.56,3c-2.4.48-3.72-.6-4-3.12-.48-5.76-2.52-9.12-9.36-9.12-8.88,0-9.48,5.64-9.48,14.88v17.28c0,9.24.6,14.88,9.48,14.88s9.48-5.64,9.48-11.52h-7a3.28,3.28,0,0,1-3.6-3.6v-9.6c0-2.4,1.32-3.6,3.6-3.6h24q3.6,0,3.6,3.6v16.2c0,7.92-1.68,29.16-30.12,29.16s-30.12-21.24-30.12-29.16Z"/></g></g></g></svg>