<svg xmlns="http://www.w3.org/2000/svg" viewBox="0 0 46.01 43.99"><defs><style>.cls-1{fill:#fff;}</style></defs><title>Asset 2</title><g id="Layer_2" data-name="Layer 2"><g id="Layer_1-2" data-name="Layer 1"><path class="cls-1" d="M45.45,4.72C39.51,13.55,21.63,31.4,21.63,31.4h0l-.12.14a5,5,0,0,1-4.11,1.4,6.09,6.09,0,0,1-1.53,5.68S8.33,47.91,0,42.05c0,0,4.49-1.26,4.89-4.89a8.75,8.75,0,0,1,2.7-7A5.74,5.74,0,0,1,13,28.53a5,5,0,0,1,1.41-4l.14-.13h0S32.44,6.49,41.28.56a3,3,0,0,1,4.17,4.16Zm-31,26.77a3.85,3.85,0,0,0-2.73-1.17A3.81,3.81,0,0,0,9,31.49a7.28,7.28,0,0,0-2.14,5.68,7.61,7.61,0,0,1-2.56,4.78,7.13,7.13,0,0,0,1.28.12c4.75,0,8.75-4.66,8.79-4.7S17.1,34.12,14.46,31.49Zm1-5.16a3.19,3.19,0,0,0,.43,3.79A3.06,3.06,0,0,0,18,31a2.9,2.9,0,0,0,2.07-.87l1.55-1.57.27-.28-4.2-4.2-.29.28Zm28.3-24A1,1,0,0,0,43,2a1.05,1.05,0,0,0-.63.22c-6.22,4.17-18,15.37-23.3,20.5l4.16,4.16C28.4,21.59,39.62,9.8,43.82,3.55A1,1,0,0,0,43.73,2.29Z"/></g></g></svg>