<svg xmlns="http://www.w3.org/2000/svg" viewBox="0 0 22 32"><defs><style>.cls-1{fill:#fff;}</style></defs><title>Asset 1</title><g id="Layer_2" data-name="Layer 2"><g id="Layer_1-2" data-name="Layer 1"><g id="bulb"><path class="cls-1" d="M11,0A11,11,0,0,0,0,11c0,4,3.69,8.3,5,12.06C7,28.65,6.81,32,11,32s4-3.33,6-8.92C18.32,19.32,22,15,22,11A11,11,0,0,0,11,0Zm2.59,27.18-5,.62c-.18-.51-.37-1.11-.6-1.89v0l6.19-.77L14,26C13.82,26.43,13.7,26.82,13.59,27.18ZM7.74,24.91c-.18-.6-.39-1.24-.61-1.91h7.77c-.12.36-.25.72-.35,1.06ZM11,30a1.74,1.74,0,0,1-2-1.25l4.24-.53C12.63,29.87,12.18,30,11,30Zm4.67-9H6.34c-.5-1.08-1.1-2.16-1.69-3.22C3.35,15.45,2,13,2,11a9,9,0,0,1,18,0c0,2-1.35,4.45-2.66,6.8C16.76,18.85,16.17,19.93,15.67,21Z"/><path class="cls-1" d="M11,5a6,6,0,0,0-6,6,.5.5,0,0,0,1,0,5,5,0,0,1,5-5,.5.5,0,0,0,0-1Z"/></g></g></g></svg>