<svg xmlns="http://www.w3.org/2000/svg" viewBox="0 0 24 21.99"><defs><style>.cls-1{fill:#fff;}</style></defs><title>Asset 2</title><g id="Layer_2" data-name="Layer 2"><g id="Layer_1-2" data-name="Layer 1"><path class="cls-1" d="M4,21a.94.94,0,0,0,1,1H23a.94.94,0,0,0,1-1V20H4Z"/><path class="cls-1" d="M4,6a4,4,0,0,0,0,8H5.3A10,10,0,0,0,24,9V6Zm0,6A2,2,0,0,1,4,8V9a9.93,9.93,0,0,0,.5,3ZM22,9A8,8,0,1,1,6,9V8H22Z"/><path class="cls-1" d="M11.3.59a.35.35,0,0,0-.1-.5c-.2-.2-.6,0-.6,0a1.94,1.94,0,0,0,.1,2.8.9.9,0,0,1,.1,1.4s-.2.4.1.6a.78.78,0,0,0,.7,0,1.8,1.8,0,0,0-.2-2.8C10.8,1.79,10.8,1.09,11.3.59Z"/><path class="cls-1" d="M14.3.59a.35.35,0,0,0-.1-.5c-.2-.2-.6,0-.6,0a1.94,1.94,0,0,0,.1,2.8.9.9,0,0,1,.1,1.4s-.2.4.1.6a.78.78,0,0,0,.7,0,1.8,1.8,0,0,0-.2-2.8C13.8,1.79,13.8,1.09,14.3.59Z"/><path class="cls-1" d="M17.3.59a.35.35,0,0,0-.1-.5c-.2-.2-.6,0-.6,0a1.94,1.94,0,0,0,.1,2.8.9.9,0,0,1,.1,1.4s-.2.4.1.6a.78.78,0,0,0,.7,0,1.8,1.8,0,0,0-.2-2.8C16.8,1.79,16.8,1.09,17.3.59Z"/></g></g></svg>