<svg xmlns="http://www.w3.org/2000/svg" xmlns:xlink="http://www.w3.org/1999/xlink" viewBox="0 0 560.07 184.56"><defs><style>.cls-1{fill:none;}.cls-2{fill:#282560;}.cls-3{clip-path:url(#clip-path);}.cls-4{fill:url(#radial-gradient);}.cls-5{clip-path:url(#clip-path-2);}.cls-6{fill:url(#radial-gradient-2);}.cls-7{clip-path:url(#clip-path-3);}.cls-8{fill:url(#radial-gradient-3);}.cls-9{clip-path:url(#clip-path-4);}.cls-10{fill:url(#radial-gradient-4);}.cls-11{fill:#484c56;}</style><clipPath id="clip-path"><path class="cls-1" d="M41.8,110.5,90,86.65,66.16,38.45A53.78,53.78,0,0,0,41.8,110.5"/></clipPath><radialGradient id="radial-gradient" cx="-22.88" cy="-330.51" r="1.04" gradientTransform="translate(10243.54 17434.13) rotate(-26.32) scale(60.7)" gradientUnits="userSpaceOnUse"><stop offset="0" stop-color="#f1f1f1"/><stop offset="0.79" stop-color="#652f8e"/><stop offset="0.84" stop-color="#592d83"/><stop offset="1" stop-color="#282560"/></radialGradient><clipPath id="clip-path-2"><path class="cls-1" d="M45.89,118.39a53.78,53.78,0,0,0,72.05,24.36L94.09,94.54Z"/></clipPath><radialGradient id="radial-gradient-2" cx="-22.88" cy="-330.51" r="1.06" gradientTransform="matrix(54.41, -26.92, 26.92, 54.41, 10243.96, 17434.68)" xlink:href="#radial-gradient"/><clipPath id="clip-path-3"><path class="cls-1" d="M101.83,90.5l23.85,48.21A53.79,53.79,0,0,0,150,66.66Z"/></clipPath><radialGradient id="radial-gradient-3" cx="-22.88" cy="-330.52" r="1.04" gradientTransform="translate(10243.97 17434.34) rotate(-26.32) scale(60.7)" xlink:href="#radial-gradient"/><clipPath id="clip-path-4"><path class="cls-1" d="M74.2,34.23,98,82.44l48.21-23.85A53.74,53.74,0,0,0,74.2,34.23"/></clipPath><radialGradient id="radial-gradient-4" cx="-22.87" cy="-330.52" r="1.04" gradientTransform="matrix(54.41, -26.92, 26.92, 54.41, 10243.59, 17434.86)" xlink:href="#radial-gradient"/></defs><title>Asset 3</title><g id="Layer_2" data-name="Layer 2"><g id="Layer_1-2" data-name="Layer 1"><path class="cls-2" d="M80.59,57.08A34.41,34.41,0,1,0,95.84,53.5a34.44,34.44,0,0,0-15.25,3.58"/><g class="cls-3"><polygon class="cls-4" points="0 52.62 77.94 14.05 118.65 96.33 40.7 134.89 0 52.62"/></g><g class="cls-5"><polygon class="cls-6" points="21.49 106.61 103.77 65.91 142.33 143.85 60.05 184.56 21.49 106.61"/></g><g class="cls-7"><polygon class="cls-8" points="73.19 80.82 151.14 42.26 191.84 124.55 113.89 163.11 73.19 80.82"/></g><g class="cls-9"><polygon class="cls-10" points="52.82 39.22 132.09 0 167.63 71.86 88.36 111.07 52.82 39.22"/></g><path class="cls-11" d="M206.46,78.27c0,.49-.83,2.28-2.9,4.22s-5,2.9-8.64,2.9h-2.08c-7.52,0-12.44-4.7-12.44-11.75V52.23c0-7,4.91-11.75,12.44-11.75h2.08c6.77,0,11.47,4.28,11.47,7A.65.65,0,0,1,206,48l-4.42,2.21a.82.82,0,0,1-.34.06c-.28,0-.35-.14-.55-.41-1.59-2.14-2.76-3.87-5.74-3.87h-2.08a6.19,6.19,0,0,0-6.21,6.23V73.64a6.2,6.2,0,0,0,6.21,6.22h2.08a5.07,5.07,0,0,0,3.73-1.45c1.52-1.8,2.15-3,2.63-3a1,1,0,0,1,.41.14L206,77.79c.28.13.41.28.41.48"/><path class="cls-11" d="M256,84.08c0,.41-.28.61-.76.61h-5.18c-.35,0-.62-.13-.69-.48l-2.56-9.12c-.07-.34-.27-.42-.69-.42H234.94c-.41,0-.62.07-.7.42l-2.55,9.12a.62.62,0,0,1-.69.48h-5.18c-.49,0-.76-.21-.76-.61,0-.08.07-.15.07-.28L238,41.65c.07-.34.28-.48.69-.48h3.73a.67.67,0,0,1,.69.48l12.85,42.15c0,.13.07.2.07.28M241.51,55.27c-.21-.69-.48-1.73-.83-3h-.27l-.83,3.11-3.39,12.92c0,.14-.07.21-.07.27,0,.42.28.63.76.63h7.26c.48,0,.76-.2.76-.63,0-.06-.06-.2-.06-.27Z"/><path class="cls-11" d="M308.2,84.7h-4.83c-.48,0-.69-.21-.69-.69l.76-30.67-9.89,24.74a.9.9,0,0,1-.62.41h-2.35a.92.92,0,0,1-.62-.41l-9.75-24.81L280.84,84c0,.48-.2.69-.69.69h-4.84c-.48,0-.69-.21-.69-.69V41.86c0-.48.21-.69.69-.69h4.77a.61.61,0,0,1,.62.41L291.61,69h.21l10.85-27.5.62-.41,4.9.07c.49,0,.7.21.7.69V84c0,.49-.21.69-.7.69"/><path class="cls-11" d="M342,84.7H328.18c-.49,0-.69-.21-.69-.69V41.86c0-.49.2-.7.69-.7H342c7.6,0,12.44,4.83,12.44,12.44v.69a9.91,9.91,0,0,1-2.14,5.6c-1.18,1.65-2.56,2.27-2.56,2.76s1.38,1.18,2.56,3a10.62,10.62,0,0,1,2.14,5.73v1c0,7.61-4.77,12.3-12.44,12.3m6.23-31.78A6.19,6.19,0,0,0,342,46.7h-7.6c-.49,0-.69.2-.69.69V59.14c0,.48.2.69.69.69H342a6.2,6.2,0,0,0,6.23-6.22Zm0,18.65A6.24,6.24,0,0,0,342,65.36h-7.6c-.49,0-.69.2-.69.68V78.48c0,.48.2.68.69.68H342A6.24,6.24,0,0,0,348.22,73Z"/><path class="cls-11" d="M400.4,84.15c0,.34-.27.54-.69.54h-5.32l-.62-.48-6.42-18.45-.55-.41H380c-.48,0-.69.2-.69.69V84c0,.48-.21.69-.69.69h-4.84c-.48,0-.69-.21-.69-.69V41.86c0-.48.21-.69.69-.69h13.82C395.16,41.17,400,46,400,53.61v.69a11.47,11.47,0,0,1-3.94,7.88c-1.24,1.18-2.49,1.39-2.49,2.08a.25.25,0,0,0,.06.2l6.7,19.36a.6.6,0,0,1,.07.35m-6.63-31.24a6.19,6.19,0,0,0-6.22-6.22H380c-.48,0-.69.21-.69.69V59.14c0,.48.21.69.69.69h7.6a6.19,6.19,0,0,0,6.22-6.22Z"/><path class="cls-11" d="M424.53,84.7H419.7c-.49,0-.7-.21-.7-.69V41.86c0-.48.21-.69.7-.69h4.83a.62.62,0,0,1,.7.69V84c0,.48-.21.69-.7.69"/><path class="cls-11" d="M458.33,84.7H444.51c-.48,0-.69-.21-.69-.69V41.86c0-.48.21-.69.69-.69h13.81c7.6,0,12.44,4.84,12.44,12.44V72.27c0,7.66-4.77,12.43-12.44,12.43m6.23-31.78a6.2,6.2,0,0,0-6.22-6.22h-7.6c-.48,0-.69.21-.69.69V78.48c0,.48.2.68.69.68h7.6A6.24,6.24,0,0,0,464.55,73Z"/><path class="cls-11" d="M516.6,47.46a.66.66,0,0,1-.41.56l-4.42,2.21a.84.84,0,0,1-.35.06c-.27,0-.35-.14-.56-.41-1.58-2.14-2.76-3.87-5.74-3.87h-3.31a6.19,6.19,0,0,0-6.22,6.22V73.64a6.19,6.19,0,0,0,6.22,6.22h2.07a6.2,6.2,0,0,0,6.22-6.22V69.16a.65.65,0,0,0-.69-.69H502.5c-.48,0-.68-.21-.68-.69V63.63c0-.48.2-.69.68-.69h13.13c.49,0,.7.21.7.69v10c0,7-4.91,11.75-12.44,11.75h-2.07c-7.54,0-12.44-4.7-12.44-11.75V52.23c0-7.05,4.9-11.75,12.44-11.75h3.31c6.78,0,11.47,4.28,11.47,7"/><path class="cls-11" d="M559.39,84.7H535.89c-.49,0-.69-.21-.69-.69V41.86c0-.48.2-.69.69-.69h23.49a.62.62,0,0,1,.69.69V46c0,.49-.21.7-.69.7H542.1c-.48,0-.68.21-.68.69V59.14c0,.48.2.69.68.69h14.17c.48,0,.69.21.69.69v4.15c0,.48-.21.69-.69.69H542.1c-.48,0-.68.2-.68.69V78.48c0,.48.2.68.68.68h17.28a.62.62,0,0,1,.69.7V84c0,.49-.21.69-.69.69"/><path class="cls-11" d="M215.34,139.81h-4.83c-.48,0-.68-.21-.68-.69l.76-30.58-9.85,24.66a.92.92,0,0,1-.62.41h-2.34a.87.87,0,0,1-.62-.41l-9.72-24.73.63,30.65c0,.48-.21.69-.7.69h-4.81c-.49,0-.69-.21-.69-.69v-42c0-.48.2-.69.69-.69h4.75a.6.6,0,0,1,.61.41l10.89,27.35H199l10.82-27.41.62-.41,4.89.06c.48,0,.69.21.69.69v42c0,.48-.21.69-.69.69"/><path class="cls-11" d="M250.48,139.81H227.07c-.5,0-.7-.21-.7-.69v-42c0-.48.2-.69.7-.69h23.41a.62.62,0,0,1,.69.69v4.13c0,.49-.2.69-.69.69H233.26c-.49,0-.69.21-.69.69v11.72c0,.48.2.68.69.68h14.12c.48,0,.69.21.69.7v4.13c0,.48-.21.69-.69.69H233.26c-.49,0-.69.2-.69.68v12.4c0,.48.2.69.69.69h17.22a.61.61,0,0,1,.69.68v4.14c0,.48-.2.69-.69.69"/><path class="cls-11" d="M282.31,133.4c0,.48-.82,2.28-2.89,4.2s-5,2.89-8.61,2.89h-2.06c-7.52,0-12.41-4.69-12.41-11.71V107.43c0-7,4.89-11.71,12.41-11.71h2.06c6.75,0,11.45,4.27,11.45,7a.65.65,0,0,1-.42.55l-4.41,2.21a.72.72,0,0,1-.34.07c-.28,0-.36-.14-.56-.42-1.58-2.13-2.75-3.86-5.72-3.86h-2.06a6.18,6.18,0,0,0-6.21,6.2v21.36a6.18,6.18,0,0,0,6.21,6.2h2.06a5,5,0,0,0,3.73-1.45c1.51-1.79,2.14-3,2.62-3a.89.89,0,0,1,.41.14l4.34,2.2c.28.14.41.28.41.48"/><path class="cls-11" d="M316.62,139.81h-4.83c-.48,0-.68-.21-.68-.69V121.21a.62.62,0,0,0-.69-.68H296.29c-.48,0-.68.2-.68.68v17.91c0,.48-.21.69-.69.69H290.1c-.49,0-.69-.21-.69-.69v-42c0-.48.2-.69.69-.69h4.82a.62.62,0,0,1,.69.69v17.23c0,.48.2.68.68.68h14.12c.48,0,.69-.2.69-.68V97.1c0-.48.21-.69.68-.69h4.83c.48,0,.69.21.69.69v42c0,.48-.21.69-.69.69"/><path class="cls-11" d="M353.41,139.19c0,.41-.27.62-.76.62h-5.16a.62.62,0,0,1-.69-.48l-2.55-9.09c-.07-.35-.28-.42-.69-.42H332.4c-.41,0-.62.07-.69.42l-2.55,9.09a.62.62,0,0,1-.69.48h-5.16c-.49,0-.76-.21-.76-.62,0-.07.07-.14.07-.27l12.81-42c.07-.35.28-.48.69-.48h3.72a.67.67,0,0,1,.69.48l12.81,42c0,.14.07.2.07.27m-14.46-28.73c-.21-.69-.48-1.73-.83-3h-.28l-.82,3.09-3.38,12.89c0,.13-.06.2-.06.27,0,.41.27.62.75.62h7.24c.48,0,.75-.21.75-.62,0-.07-.06-.2-.06-.27Z"/><path class="cls-11" d="M375.59,101.92h-7.92c-.48,0-.69.21-.69.69v36.51c0,.49-.2.7-.69.7h-4.82c-.48,0-.69-.21-.69-.7V102.61c0-.48-.21-.69-.68-.69h-7.93c-.48,0-.69-.21-.69-.69V97.1c0-.48.21-.69.69-.69h23.43c.48,0,.69.2.69.69v4.13c0,.49-.21.69-.69.69"/><path class="cls-11" d="M410.11,139.26c0,.35-.27.55-.69.55h-5.31l-.62-.49-6.4-18.39-.55-.41h-6.83c-.48,0-.69.2-.69.68v17.91c0,.49-.21.7-.68.7h-4.83c-.49,0-.69-.21-.69-.7v-42c0-.48.2-.69.69-.69H397.3c7.58,0,12.4,4.82,12.4,12.4v.69a11.46,11.46,0,0,1-3.92,7.86c-1.24,1.17-2.48,1.38-2.48,2.06a.25.25,0,0,0,.07.21l6.68,19.3a.59.59,0,0,1,.07.34m-6.61-31.14a6.17,6.17,0,0,0-6.2-6.2h-7.58c-.48,0-.69.21-.69.69v11.72c0,.48.21.68.69.68h7.58a6.17,6.17,0,0,0,6.2-6.2Z"/><path class="cls-11" d="M430.29,140.5h-2.06c-7.51,0-12.4-4.69-12.4-11.71V107.43c0-7,4.89-11.71,12.4-11.71h2.06c7.51,0,12.41,4.69,12.41,11.71v21.36c0,7-4.89,11.71-12.41,11.71m6.2-33.07a6.18,6.18,0,0,0-6.2-6.2h-2.06a6.17,6.17,0,0,0-6.2,6.2v21.36a6.17,6.17,0,0,0,6.2,6.2h2.06a6.18,6.18,0,0,0,6.2-6.2Z"/><path class="cls-11" d="M477.57,139.81h-4.41l-.61-.34-16.4-30.93.41,30.58c0,.48-.2.69-.69.69H451c-.48,0-.69-.21-.69-.69v-42c0-.48.21-.69.69-.69h4.41l.62.35,16.32,30.86-.34-30.52c0-.48.21-.69.69-.69h4.83c.48,0,.68.21.68.69v42c0,.48-.2.69-.68.69"/><path class="cls-11" d="M492,139.81h-4.82c-.49,0-.69-.21-.69-.69v-42c0-.48.21-.69.69-.69H492a.62.62,0,0,1,.69.69v42c0,.48-.2.69-.69.69"/><path class="cls-11" d="M527.94,133.4c0,.48-.83,2.28-2.9,4.2s-5,2.89-8.61,2.89h-2.06c-7.51,0-12.4-4.69-12.4-11.71V107.43c0-7,4.9-11.71,12.4-11.71h2.06c6.75,0,11.44,4.27,11.44,7a.64.64,0,0,1-.41.55L523,105.43a.75.75,0,0,1-.35.07c-.28,0-.34-.14-.55-.42-1.59-2.13-2.76-3.86-5.72-3.86h-2.06a6.18,6.18,0,0,0-6.2,6.2v21.36a6.18,6.18,0,0,0,6.2,6.2h2.06a5,5,0,0,0,3.72-1.45c1.51-1.79,2.13-3,2.62-3a.88.88,0,0,1,.41.14l4.34,2.2c.28.14.42.28.42.48"/><path class="cls-11" d="M538.82,107.43c0,3.72,3.38,5,9,7.65,7.3,3.37,10.75,7,10.75,13.71,0,7-4.89,11.71-12.4,11.71h-2.9a12.72,12.72,0,0,1-7.5-2c-2.69-2.07-3.93-4-3.93-5.1,0-.2.13-.34.41-.48l4.35-2.2a1.06,1.06,0,0,1,.34-.14c.27,0,.42.21.62.49,1.59,2.14,2.55,3.93,5.72,3.93h2.9a6.22,6.22,0,0,0,6.2-6.2c0-3.92-3-5.65-8.33-8.14-7.38-3.44-11.38-6.19-11.38-13.22s4.9-11.71,12.4-11.71h1.1c6.75,0,11.44,4.34,11.44,7a.63.63,0,0,1-.42.55l-4.4,2.21a.74.74,0,0,1-.35.07c-.27,0-.34-.14-.55-.42-1.59-2.13-2.76-3.86-5.72-3.86H545a6.18,6.18,0,0,0-6.2,6.2"/></g></g></svg>