<svg xmlns="http://www.w3.org/2000/svg" viewBox="0 0 79.5 79.5"><defs><style>.cls-1{fill:none;stroke:#fff;stroke-miterlimit:10;stroke-width:1.5px;fill-rule:evenodd;}</style></defs><title>Asset 2</title><g id="Layer_2" data-name="Layer 2"><g id="Layer_1-2" data-name="Layer 1"><path class="cls-1" d="M78.75,39.75a39,39,0,1,1-39-39A39,39,0,0,1,78.75,39.75Zm-39-39c-6.93,0-12.56,17.46-12.56,39s5.62,39,12.56,39,12.56-17.46,12.56-39S46.68.75,39.75.75Zm0,0c-15.64,0-28.33,17.46-28.33,39s12.68,39,28.33,39,28.33-17.46,28.33-39S55.39.75,39.75.75Zm39,39H.75M74.94,22.92H4.56M74.94,56.17H4.56"/></g></g></svg>