<svg xmlns="http://www.w3.org/2000/svg" viewBox="0 0 46.32 70.35"><defs><style>.cls-1,.cls-2{fill:none;stroke:#fff;stroke-miterlimit:10;stroke-width:2px;}.cls-2{stroke-linecap:round;}</style></defs><title>Asset 5</title><g id="Layer_2" data-name="Layer 2"><g id="Layer_1-2" data-name="Layer 1"><rect class="cls-1" x="1" y="1" width="44.32" height="68.35"/><rect class="cls-1" x="5.63" y="6.35" width="35.06" height="53.57"/><line class="cls-2" x1="20.4" y1="64.19" x2="25.92" y2="64.19"/><path class="cls-1" d="M10.7,47.1A5.9,5.9,0,0,1,14.88,41c4.72-1.6,5.43-1.69,5.7-3.47a10.76,10.76,0,0,1-3.65-8.1c0-5.25,3.25-8.1,5.59-8.1h1.3c2.33,0,5.58,2.85,5.58,8.1a10.76,10.76,0,0,1-3.65,8.1c.27,1.78,1,1.87,5.7,3.47a5.9,5.9,0,0,1,4.18,6.14Z"/></g></g></svg>