<svg xmlns="http://www.w3.org/2000/svg" viewBox="0 0 50.69 65.88"><defs><style>.cls-1{fill:none;stroke:#fff;stroke-miterlimit:10;stroke-width:2px;}</style></defs><title>Asset 5</title><g id="Layer_2" data-name="Layer 2"><g id="Layer_1-2" data-name="Layer 1"><path class="cls-1" d="M.29,64.92a37.69,37.69,0,0,1,4.24-1c2.5-.45,5-1,7.47-1.55a3.78,3.78,0,0,0,3.27-4.26c-.12-2.23-.1-4.46-.17-6.69a1.77,1.77,0,0,0-.28-.89,24,24,0,0,1-3.35-10c-.11-.74-.21-1.41-1.08-1.79a2.16,2.16,0,0,1-1-1.29c-.66-2.29-1.29-4.59-1.78-6.91a2.83,2.83,0,0,1,.93-3.15c-.33-3.44-.84-6.67-.9-9.91-.14-8,4.63-14,12.38-15.78C26.17.28,32,.88,37.19,4.79A14,14,0,0,1,43,16.42c0,3.6-.53,7.19-.83,11,1.33.9,1.07,2.58.74,4.17A41.34,41.34,0,0,1,41.45,37a9.08,9.08,0,0,1-1.5,2,2.55,2.55,0,0,0-.57.91c-.65,3.78-1.47,7.48-3.58,10.8a5.19,5.19,0,0,0-.3,2.56c0,2,.08,4.06.07,6.08a2.4,2.4,0,0,0,1.49,2.24,21.6,21.6,0,0,0,7.57,2,36.78,36.78,0,0,1,5.76,1.26"/></g></g></svg>